<svg id="Layer_1" data-name="Layer 1" xmlns="http://www.w3.org/2000/svg" viewBox="0 0 2160 1080"><defs><style>.cls-1{fill:#e0dfc2;}.cls-2{fill:none;stroke:#e0dfc2;stroke-miterlimit:10;stroke-width:2px;}</style></defs><rect width="2160" height="1080"/><path id="Union_351" data-name="Union 351" class="cls-1" d="M1375.89,833.37h9.91c.57,7.16,6.91,10.57,14.52,10.57,8.4,0,14.51-4.24,14.51-10.66,0-5.85-5.4-8.16-12.4-10l-7.74-2.12c-10.52-2.86-17-8.22-17-17.37,0-11.33,10.07-18.88,23.21-18.88,13.29,0,22.57,7.63,22.85,18.17h-9.52c-.71-6.07-6-9.6-13.56-9.6-8.06,0-13.14,4.14-13.14,9.73,0,6.29,6.78,8.7,11.89,10l6.41,1.66c8.31,2.06,18.83,6.65,18.83,18.49,0,11.14-8.86,19.26-24.24,19.26C1385.7,852.64,1376.53,845.28,1375.89,833.37Zm-114,0h9.91c.57,7.16,6.91,10.57,14.51,10.57,8.41,0,14.52-4.24,14.52-10.66,0-5.85-5.4-8.16-12.41-10l-7.73-2.12c-10.52-2.86-17-8.22-17-17.37,0-11.33,10.07-18.88,23.21-18.88,13.3,0,22.57,7.63,22.86,18.17h-9.53c-.7-6.07-6-9.6-13.56-9.6-8,0-13.14,4.14-13.14,9.73,0,6.29,6.78,8.7,11.9,10l6.4,1.66c8.31,2.06,18.83,6.65,18.83,18.49,0,11.14-8.85,19.26-24.23,19.26-14.69,0-23.86-7.34-24.5-19.25Zm-166.34-4.07V785.8h9.88v43.34c0,9.21,7.35,14.38,16.11,14.38s16.15-5.17,16.15-14.38V785.8h9.88v43.5c0,14.83-11.55,23.34-26,23.34s-26-8.51-26-23.34ZM971.66,818.67c0-21,12.5-33.77,29.51-33.77s29.48,12.74,29.48,33.77-12.54,33.78-29.48,33.78-29.51-12.78-29.51-33.78Zm9.82,0c0,16,8.4,24.71,19.69,24.71s19.69-8.7,19.69-24.71S1012.42,794,1001.17,794s-19.69,8.69-19.69,24.71Zm455.83,32.88V785.8h9.88v65.75Zm-114,0V785.8h41v8.54h-31.17v20h29v8.51h-29V843h31.56v8.53Zm-84,0V785.8h9.88v65.75Zm-51.7,0V785.8h9.87V843h29.67v8.54Zm-143.76,0V785.8h9.87V843h29.67v8.54Zm-135.93,0V785.8h21.87c19.28,0,30.81,12.32,30.81,32.78s-11.54,33-31.49,33Zm9.88-8.67h10.77c14.94,0,22.32-8.74,22.32-24.31s-7.38-24.11-21.71-24.11H917.78Zm-30.69,8.67-6-17.41H855.53l-6,17.41H839l23.56-65.76H874l23.55,65.76ZM858.41,825.8h19.83l-9.66-28.06h-.51Zm-38.79,25.75-33.28-48.22h-.6v48.22h-9.89V785.8H785l33.31,48.28h.6V785.8h9.79v65.75Zm-64.59,0-6-17.41H723.48l-6,17.41H707l23.56-65.76H742l23.56,65.76ZM726.35,825.8h19.83l-9.66-28.06H736Zm709.88-53.33a6.05,6.05,0,1,1,6.4,5.71h-.36A5.93,5.93,0,0,1,1436.23,772.47Zm-198,0a6.06,6.06,0,1,1,6.41,5.71h-.36a6,6,0,0,1-6-5.72Zm555.07-65.14v-58h15.81v57.57c0,10.83,8.65,17.12,19.6,17.12s19.65-6.29,19.65-17.12V649.37h15.78v58c0,19.86-15.26,31-35.43,31S1793.27,727.19,1793.27,707.33ZM902,711.14h15.56c.64,9.2,8.31,13.66,18.2,13.66,10.32,0,17.39-5,17.44-12.5,0-6.8-6.27-9.76-15.69-12.15l-9.93-2.57c-14.37-3.74-23.28-11-23.28-23.56,0-15.49,13.73-25.85,32.06-25.85,18.58,0,31.16,10.48,31.46,25.29H952.58c-.8-7.44-7-11.85-16.46-11.85-9.89,0-15.77,4.84-15.8,11.43-.09,7.32,7.67,10.36,14.83,12.07l8.19,2.06c13.13,3.12,25.62,10.06,25.66,25.25,0,15.45-12.19,25.94-33.12,25.94-20.35,0-33.26-9.8-33.9-27.22Zm728.09-17.85c0-28.25,17.14-45.12,40-45.12,19.31,0,34.14,12,36.83,29.2h-16.11c-2.81-9.29-10-14.94-20.5-14.94-14.11,0-24.3,11-24.3,30.69S1656,724,1670.62,724c13.13,0,21.44-7.92,21.7-20.42h-20.13V691.14h35.43v10.53c0,22.6-15.48,36.57-37.09,36.57-24.09,0-40.46-17.22-40.46-45Zm-94.22-.08c0-28.33,17.18-45,40.12-45s40.11,16.7,40.11,45-17.22,45-40.11,45-40.11-16.75-40.11-45Zm15.9,0c0,19.94,10,30.78,24.21,30.78s24.21-10.84,24.21-30.78-10-30.78-24.21-30.78-24.2,10.82-24.2,30.77ZM1724.12,737V649.37h15.8v74.35h38.46V737Zm-218.5,0-41.13-59.71h-.73V737H1448V649.37h14.14l41.1,59.75h.76V649.37h15.73V737Zm-91.87,0V649.37h15.81V737Zm-57.26,0V662.68h-27V649.37h69.66v13.31h-27V737Zm-42.16,0-7.25-21.62h-32.82L1267.05,737h-16.88l30.74-87.66h19.52L1331.21,737Zm-35.82-34.37h24.3L1291,667.34h-.68ZM1195.26,737V649.37h55.93v13.31h-40.12v23.8h36.28v13.31h-36.28V737Zm-65.19,0V649.37h15.8V737Zm-35.22,0V676.81h-.8l-24.12,60h-11.34l-24.15-60.09h-.8V737h-15.18V649.37h19.36l25.92,63.52h1l25.91-63.52H1110V737Zm-110.58,0V649.37h15.81V737ZM831,737V649.37h56.78v13.31h-41v23.8h38v13.31h-38v23.93h41.31V737Zm-32.45,0-41.15-59.71h-.73V737h-15.8V649.37H755l41.1,59.75h.76V649.37h15.73V737Zm-121.14,0-41.13-59.71h-.73V737h-15.8V649.37h14.15L675,709.12h.77V649.37H691.5V737Zm-91.88,0V649.37h15.81V737Zm-88.16,0V649.37h30.18c26,0,41.78,16.43,41.78,43.74S553.57,737,527,737Zm15.81-13.74h13c18.21,0,27.45-10,27.45-30.18s-9.25-30-27-30H513.19Zm-50,13.74V649.37H479V737Zm-80.11,0V649.37H416.5c18.92,0,28.3,9.67,28.3,22.73,0,10.66-6.73,16.65-15.26,18.66v.86c9.29.47,18.67,8.26,18.67,21.53,0,13.66-9.8,23.88-29.8,23.88Zm15.81-13.27h17c11.46,0,16.24-4.88,16.24-11.85,0-7.84-6.06-13.83-15.81-13.83H398.9Zm0-37.11h15.64c8.23,0,14.45-4.79,14.45-12.5,0-6.76-4.81-11.68-14.1-11.68h-16ZM353.5,737l-7.26-21.62H313.42L306.22,737H289.34l30.73-87.66h19.52L370.37,737Zm-35.81-34.37H342l-11.8-35.32h-.69Zm1332.2-75.9h11.47c0,4.11,2.3,7.92,8.41,7.92s8.4-3.72,8.44-7.92h11.55c0,10-7.72,16.78-20,16.78S1649.85,636.78,1649.89,626.76Zm-237.16,4.88a8.95,8.95,0,1,1,8.33,8.37A9,9,0,0,1,1412.73,631.64Zm-283.69,0a8.95,8.95,0,1,1,8.35,8.39A9,9,0,0,1,1129,631.64Zm-145.8,0a8.95,8.95,0,1,1,8.33,8.37A9,9,0,0,1,983.24,631.64Zm-398.71,0a8.95,8.95,0,1,1,8.34,8.39A9,9,0,0,1,584.53,631.64Zm-122.36,0A8.95,8.95,0,1,1,470.5,640,9,9,0,0,1,462.17,631.64Z"/><ellipse class="cls-2" cx="1675.22" cy="276.85" rx="25.01" ry="25.11"/><path id="Union_349" data-name="Union 349" class="cls-1" d="M1669.18,291.63a15.61,15.61,0,0,1-1.2-28.14,12.37,12.37,0,1,0,14.47,0,15.57,15.57,0,0,1-13.27,28.14Zm6-23.91-4.39,3.37,1.69-5.45-4.4-3.36h5.43l1.67-5.45,1.68,5.45h5.42l-4.39,3.36,1.68,5.45Z"/><polygon class="cls-2" points="209.68 277.59 209.68 588.99 1950.32 588.99 1950.32 277.59 1850.28 277.59 1850.28 247.45 1746.24 247.45 1746.24 227.36 1606.19 227.36 1606.19 247.45 1500.15 247.45 1500.15 277.59 1400.12 277.59 1400.12 269.55 1460.14 269.55 1355.14 229.37 1307.43 229.37 1200.04 269.55 1260.07 269.55 1260.07 351.92 899.93 351.92 899.93 269.55 959.96 269.55 854.96 229.37 807.25 229.37 699.86 269.55 759.88 269.55 759.88 277.59 659.85 277.59 659.85 247.45 555.81 247.45 555.81 227.36 415.76 227.36 415.76 247.45 309.72 247.45 309.72 277.59 209.68 277.59"/><polyline class="cls-2" points="288.71 587.98 288.71 328.82 230.69 328.82 230.69 587.98"/><rect class="cls-2" x="246.7" y="358.95" width="28.01" height="48.22"/><polyline class="cls-2" points="274.71 383.06 260.7 383.06 260.7 358.95"/><polyline class="cls-2" points="246.7 383.06 260.7 383.06 260.7 407.17"/><rect class="cls-2" x="246.7" y="439.31" width="28.01" height="48.22"/><polyline class="cls-2" points="274.71 463.42 260.7 463.42 260.7 439.31"/><polyline class="cls-2" points="246.7 463.42 260.7 463.42 260.7 487.53"/><rect class="cls-2" x="246.7" y="519.68" width="28.01" height="48.22"/><polyline class="cls-2" points="274.71 543.78 260.7 543.78 260.7 519.67"/><polyline class="cls-2" points="246.7 543.78 260.7 543.78 260.7 567.89"/><polyline class="cls-2" points="400.75 587.98 400.75 332.84 438.77 332.84 438.77 587.98"/><polyline class="cls-2" points="450.77 587.98 450.77 328.82 518.8 328.82 518.8 587.98"/><line class="cls-2" x1="496.79" y1="588.99" x2="496.79" y2="333.72"/><line class="cls-2" x1="472.78" y1="588.99" x2="472.78" y2="333.72"/><polyline class="cls-2" points="450.77 364.98 472.78 364.98 496.79 364.98 518.8 364.98"/><polyline class="cls-2" points="450.77 397.13 472.78 397.13 496.79 397.13 518.8 397.13"/><polyline class="cls-2" points="450.77 429.27 472.78 429.27 496.79 429.27 518.8 429.27"/><polyline class="cls-2" points="450.77 461.41 472.78 461.41 496.79 461.41 518.8 461.41"/><polyline class="cls-2" points="450.77 493.56 472.78 493.56 496.79 493.56 518.8 493.56"/><polyline class="cls-2" points="450.77 525.7 472.78 525.7 496.79 525.7 518.8 525.7"/><polyline class="cls-2" points="450.77 557.85 472.78 557.85 496.79 557.85 518.8 557.85"/><polyline class="cls-2" points="530.8 587.98 530.8 332.84 568.81 332.84 568.81 587.98"/><line class="cls-2" x1="450.77" y1="332.84" x2="518.8" y2="332.84"/><polyline class="cls-2" points="738.88 587.98 738.88 328.82 680.86 328.82 680.86 587.98"/><rect class="cls-2" x="696.86" y="358.95" width="28.01" height="48.22"/><polyline class="cls-2" points="724.87 383.06 710.87 383.06 710.87 358.95"/><polyline class="cls-2" points="696.86 383.06 710.87 383.06 710.87 407.17"/><rect class="cls-2" x="696.86" y="439.31" width="28.01" height="48.22"/><polyline class="cls-2" points="724.87 463.42 710.87 463.42 710.87 439.31"/><polyline class="cls-2" points="696.86 463.42 710.87 463.42 710.87 487.53"/><rect class="cls-2" x="696.86" y="519.68" width="28.01" height="48.22"/><polyline class="cls-2" points="724.87 543.78 710.87 543.78 710.87 519.67"/><polyline class="cls-2" points="696.86 543.78 710.87 543.78 710.87 567.89"/><polygon class="cls-2" points="770.89 455.39 770.89 479.5 770.89 503.6 798.9 503.6 798.9 455.39 770.89 455.39"/><polyline class="cls-2" points="798.9 479.5 784.89 479.5 784.89 455.39"/><polyline class="cls-2" points="784.89 503.6 784.89 479.5 770.89 479.5"/><rect class="cls-2" x="770.89" y="375.03" width="28.01" height="48.22"/><polyline class="cls-2" points="784.89 375.03 784.89 399.13 798.9 399.13"/><polyline class="cls-2" points="784.89 423.24 784.89 399.13 770.89 399.13"/><rect class="cls-2" x="820.91" y="375.03" width="28.01" height="48.22"/><polyline class="cls-2" points="848.92 399.13 834.91 399.13 834.91 375.03"/><polyline class="cls-2" points="820.91 399.13 834.91 399.13 834.91 423.24"/><rect class="cls-2" x="870.92" y="375.03" width="28.01" height="48.22"/><polyline class="cls-2" points="884.93 375.03 884.93 399.13 898.93 399.13"/><polyline class="cls-2" points="870.92 399.13 884.93 399.13 884.93 423.24"/><rect class="cls-2" x="920.94" y="375.03" width="28.01" height="48.22"/><polyline class="cls-2" points="948.95 399.13 934.95 399.13 934.95 375.03"/><polyline class="cls-2" points="920.94 399.13 934.95 399.13 934.95 423.24"/><rect class="cls-2" x="820.91" y="455.39" width="28.01" height="48.22"/><polyline class="cls-2" points="848.92 479.5 834.91 479.5 834.91 455.39"/><polyline class="cls-2" points="820.91 479.5 834.91 479.5 834.91 503.6"/><rect class="cls-2" x="870.92" y="455.39" width="28.01" height="48.22"/><polyline class="cls-2" points="898.93 479.5 884.93 479.5 884.93 455.39"/><polyline class="cls-2" points="870.92 479.5 884.93 479.5 884.93 503.6"/><rect class="cls-2" x="920.94" y="455.39" width="28.01" height="48.22"/><polyline class="cls-2" points="948.95 479.5 934.95 479.5 934.95 455.39"/><polyline class="cls-2" points="920.94 479.5 934.95 479.5 934.95 503.6"/><rect class="cls-2" x="770.89" y="525.7" width="28.01" height="28.13"/><rect class="cls-2" x="870.92" y="525.7" width="28.01" height="28.13"/><rect class="cls-2" x="920.94" y="525.7" width="28.01" height="28.13"/><polyline class="cls-2" points="970.96 587.98 970.96 399.13 1189.04 399.13 1189.04 587.98"/><path class="cls-2" d="M1121,589V468.45a29.08,29.08,0,0,1,29-29.14h0a29.08,29.08,0,0,1,29,29.14V589"/><path class="cls-2" d="M1051,589V468.45a29.08,29.08,0,0,1,29-29.14h0a29.08,29.08,0,0,1,29,29.14V589"/><path class="cls-2" d="M1039,589V468.45a29.07,29.07,0,0,0-29-29.14h0a29.08,29.08,0,0,0-29,29.14V589"/><rect class="cls-2" x="1010.97" y="405.16" width="138.05" height="28.13"/><rect class="cls-2" x="820.91" y="525.7" width="28.01" height="28.13"/><rect class="cls-2" x="1211.05" y="525.7" width="28.01" height="28.13"/><rect class="cls-2" x="1261.07" y="525.7" width="28.01" height="28.13"/><rect class="cls-2" x="1311.08" y="525.7" width="28.01" height="28.13"/><rect class="cls-2" x="1361.1" y="525.7" width="28.01" height="28.13"/><rect class="cls-2" x="1211.05" y="455.39" width="28.01" height="48.22"/><polyline class="cls-2" points="1239.06 479.5 1225.05 479.5 1225.05 455.39"/><polyline class="cls-2" points="1211.05 479.5 1225.05 479.5 1225.05 503.6"/><rect class="cls-2" x="1261.07" y="455.39" width="28.01" height="48.22"/><polyline class="cls-2" points="1289.08 479.5 1275.07 479.5 1275.07 455.39"/><polyline class="cls-2" points="1261.07 479.5 1275.07 479.5 1275.07 503.6"/><rect class="cls-2" x="1311.08" y="455.39" width="28.01" height="48.22"/><polyline class="cls-2" points="1339.09 479.5 1325.09 479.5 1325.09 455.39"/><polyline class="cls-2" points="1311.08 479.5 1325.09 479.5 1325.09 503.6"/><rect class="cls-2" x="1361.1" y="455.39" width="28.01" height="48.22"/><polyline class="cls-2" points="1389.11 479.5 1375.11 479.5 1375.11 455.39"/><polyline class="cls-2" points="1361.1 479.5 1375.11 479.5 1375.11 503.6"/><rect class="cls-2" x="1211.05" y="375.03" width="28.01" height="48.22"/><polyline class="cls-2" points="1239.06 399.13 1225.05 399.13 1225.05 375.03"/><polyline class="cls-2" points="1211.05 399.13 1225.05 399.13 1225.05 423.24"/><rect class="cls-2" x="1261.07" y="375.03" width="28.01" height="48.22"/><polyline class="cls-2" points="1289.08 399.13 1275.07 399.13 1275.07 375.03"/><polyline class="cls-2" points="1261.07 399.13 1275.07 399.13 1275.07 423.24"/><rect class="cls-2" x="1311.08" y="375.03" width="28.01" height="48.22"/><polyline class="cls-2" points="1339.09 399.13 1325.09 399.13 1325.09 375.03"/><polyline class="cls-2" points="1311.08 399.13 1325.09 399.13 1325.09 423.24"/><rect class="cls-2" x="1361.1" y="375.03" width="28.01" height="48.22"/><polyline class="cls-2" points="1389.11 399.13 1375.11 399.13 1375.11 375.03"/><polyline class="cls-2" points="1361.1 399.13 1375.11 399.13 1375.11 423.24"/><polyline class="cls-2" points="1421.12 587.98 1421.12 328.82 1479.14 328.82 1479.14 587.98"/><rect class="cls-2" x="1437.13" y="358.95" width="28.01" height="48.22"/><polyline class="cls-2" points="1465.14 383.06 1451.13 383.06 1451.13 358.95"/><polyline class="cls-2" points="1437.13 383.06 1451.13 383.06 1451.13 407.17"/><rect class="cls-2" x="1437.13" y="439.31" width="28.01" height="48.22"/><polyline class="cls-2" points="1465.14 463.42 1451.13 463.42 1451.13 439.31"/><polyline class="cls-2" points="1437.13 463.42 1451.13 463.42 1451.13 487.53"/><rect class="cls-2" x="1437.13" y="519.68" width="28.01" height="48.22"/><polyline class="cls-2" points="1465.14 543.78 1451.13 543.78 1451.13 519.67"/><polyline class="cls-2" points="1437.13 543.78 1451.13 543.78 1451.13 567.89"/><polyline class="cls-2" points="1591.18 587.98 1591.18 332.84 1629.2 332.84 1629.2 587.98"/><polyline class="cls-2" points="1641.2 587.98 1641.2 328.82 1709.23 328.82 1709.23 587.98"/><line class="cls-2" x1="1663.21" y1="333.72" x2="1663.21" y2="588.99"/><line class="cls-2" x1="1687.22" y1="588.99" x2="1687.22" y2="333.72"/><line class="cls-2" x1="1641.2" y1="364.98" x2="1709.23" y2="364.98"/><line class="cls-2" x1="1641.2" y1="397.13" x2="1709.23" y2="397.13"/><line class="cls-2" x1="1641.2" y1="429.27" x2="1709.23" y2="429.27"/><line class="cls-2" x1="1641.2" y1="461.41" x2="1709.23" y2="461.41"/><line class="cls-2" x1="1641.2" y1="493.56" x2="1709.23" y2="493.56"/><line class="cls-2" x1="1641.2" y1="525.7" x2="1709.23" y2="525.7"/><line class="cls-2" x1="1641.2" y1="557.85" x2="1709.23" y2="557.85"/><line class="cls-2" x1="1641.2" y1="332.84" x2="1709.23" y2="332.84"/><path class="cls-2" d="M1721.23,588V332.84c1-.12,38,0,38,0V588"/><polyline class="cls-2" points="1871.29 587.98 1871.29 328.82 1929.31 328.82 1929.31 587.98"/><rect class="cls-2" x="1887.29" y="519.68" width="28.01" height="48.22"/><polyline class="cls-2" points="1915.3 543.78 1901.3 543.78 1901.3 519.67"/><polyline class="cls-2" points="1887.29 543.78 1901.3 543.78 1901.3 567.89"/><rect class="cls-2" x="1887.29" y="439.31" width="28.01" height="48.22"/><polyline class="cls-2" points="1915.3 463.42 1901.3 463.42 1901.3 439.31"/><polyline class="cls-2" points="1887.29 463.42 1901.3 463.42 1901.3 487.53"/><rect class="cls-2" x="1887.29" y="358.95" width="28.01" height="48.22"/><polyline class="cls-2" points="1915.3 383.06 1901.3 383.06 1901.3 358.95"/><polyline class="cls-2" points="1887.29 383.06 1901.3 383.06 1901.3 407.17"/><ellipse class="cls-2" cx="485.18" cy="277.51" rx="25.01" ry="25.11"/><path id="Union_350" data-name="Union 350" class="cls-1" d="M479.15,292.29a15.61,15.61,0,0,1-1.2-28.14,12.36,12.36,0,1,0,14.47,0,15.57,15.57,0,0,1-13.27,28.14Zm6-23.91-4.39,3.37,1.69-5.45-4.41-3.36h5.43l1.68-5.45,1.68,5.45h5.42l-4.39,3.36,1.68,5.45Z"/></svg>