<svg xmlns="http://www.w3.org/2000/svg" width="282.5" height="139.5" viewBox="0 0 282.5 139.5">
  <g id="Group_4648" data-name="Group 4648" transform="translate(8903 -2625)">
    <path id="Path_7374" data-name="Path 7374" d="M6,0H276.5a6,6,0,0,1,6,6V133.5a6,6,0,0,1-6,6H6a6,6,0,0,1-6-6V6A6,6,0,0,1,6,0" transform="translate(-8903 2625)" fill="#130291"/>
    <g id="Group_4647" data-name="Group 4647">
      <path id="Path_7375" data-name="Path 7375" d="M35.76,79.171,41.979,60.33h6.992L55.19,79.171H49.669l-1.084-3.607h-6.22l-1.084,3.607Zm11.666-7.433-1.878-6.219H45.4l-1.878,6.219Z" transform="translate(-8903 2625)" fill="#fff"/>
      <path id="Path_7376" data-name="Path 7376" d="M73.315,79.171H69.048l-6.808-9.9h-.112v9.9H57.013V60.329h4.343l6.7,9.862H68.2V60.329h5.115Z" transform="translate(-8903 2625)" fill="#fff"/>
      <path id="Path_7377" data-name="Path 7377" d="M75.761,60.329H89.01v4.121H80.876v3.238H88.2v4.123H80.876v7.359H75.761Z" transform="translate(-8903 2625)" fill="#fff"/>
      <path id="Path_7378" data-name="Path 7378" d="M138.56,79.428c-4.894,0-8.492-3.661-8.492-9.678s3.6-9.678,8.492-9.678c4.875,0,8.481,3.653,8.481,9.678s-3.606,9.678-8.481,9.678m0-16.762c-3.248,0-5.668,2.494-5.668,7.084s2.42,7.085,5.668,7.085,5.666-2.5,5.666-7.085-2.429-7.084-5.666-7.084" transform="translate(-8903 2625)" fill="#fff"/>
      <path id="Path_7379" data-name="Path 7379" d="M149.635,60.329h2.843v9h.23l7.9-9h3.577l-7.6,8.481,7.624,10.36h-3.421l-6.09-8.418-2.226,2.558v5.86h-2.843Z" transform="translate(-8903 2625)" fill="#fff"/>
      <path id="Path_7380" data-name="Path 7380" d="M178.9,66.456a4.68,4.68,0,0,0-4.885-3.79c-3.248,0-5.677,2.511-5.677,7.084,0,4.609,2.439,7.085,5.668,7.085A4.7,4.7,0,0,0,178.9,73.1l2.87.009a7.423,7.423,0,0,1-6.983,6.284l-.11.562a2.127,2.127,0,0,1,2,2.2c.008,1.665-1.471,2.787-4.2,2.787l-.055-1.536c1.271,0,2.144-.348,2.153-1.167s-.58-1.087-1.931-1.216l.34-1.646c-4.371-.468-7.471-4.02-7.471-9.623,0-6.025,3.6-9.678,8.473-9.678,3.984,0,7.139,2.355,7.783,6.384Z" transform="translate(-8903 2625)" fill="#fff"/>
      <path id="Path_7381" data-name="Path 7381" d="M199.329,60.329V72.8c0,4.249-3.322,6.686-7.49,6.686s-7.479-2.437-7.479-6.686V60.329H187.2V72.748c0,2.64,2.117,4.122,4.636,4.122,2.539,0,4.647-1.482,4.647-4.122V60.329Z" transform="translate(-8903 2625)" fill="#fff"/>
      <path id="Path_7382" data-name="Path 7382" d="M201.923,60.329h2.843V76.722H213.3v2.448H201.923Z" transform="translate(-8903 2625)" fill="#fff"/>
      <path id="Path_7383" data-name="Path 7383" d="M229.567,60.329V72.8c0,4.249-3.322,6.686-7.49,6.686S214.6,77.045,214.6,72.8V60.329h2.843V72.748c0,2.64,2.117,4.122,4.636,4.122,2.539,0,4.647-1.482,4.647-4.122V60.329Z" transform="translate(-8903 2625)" fill="#fff"/>
      <path id="Path_7384" data-name="Path 7384" d="M232.16,60.329H235v9h.23l7.9-9h3.577l-7.6,8.481,7.624,10.36h-3.421l-6.09-8.418L235,73.311v5.86H232.16Z" transform="translate(-8903 2625)" fill="#fff"/>
      <path id="Path_7385" data-name="Path 7385" d="M125.746,69.75a16.208,16.208,0,1,1-16.207-16.207A16.206,16.206,0,0,1,125.746,69.75" transform="translate(-8903 2625)" fill="#e31836"/>
      <path id="Path_7386" data-name="Path 7386" d="M120.344,69.75a10.805,10.805,0,1,1-10.805-10.805A10.806,10.806,0,0,1,120.344,69.75" transform="translate(-8903 2625)" fill="#130291"/>
      <path id="Path_7387" data-name="Path 7387" d="M114.942,69.75a5.4,5.4,0,1,1-5.4-5.4,5.4,5.4,0,0,1,5.4,5.4" transform="translate(-8903 2625)" fill="#e31836"/>
    </g>
  </g>
</svg>
