<svg xmlns="http://www.w3.org/2000/svg" xmlns:xlink="http://www.w3.org/1999/xlink" width="750" height="370" viewBox="0 0 750 370">
  <defs>
    <clipPath id="clip-path">
      <rect id="Rectangle_8115" data-name="Rectangle 8115" width="560.643" height="201.486" fill="none"/>
    </clipPath>
  </defs>
  <g id="Group_1752" data-name="Group 1752" transform="translate(2006 -7911)">
    <rect id="Rectangle_8224" data-name="Rectangle 8224" width="750" height="370" rx="12" transform="translate(-2006 7911)" fill="#130291"/>
    <g id="Group_1748" data-name="Group 1748" transform="translate(-1911.322 7995.257)">
      <g id="Group_1685" data-name="Group 1685" clip-path="url(#clip-path)">
        <path id="Path_6864" data-name="Path 6864" d="M375.516,195.289H378.7c.185,2.3,2.222,3.4,4.67,3.4,2.7,0,4.67-1.364,4.67-3.429,0-1.881-1.738-2.624-3.991-3.223l-2.489-.682c-3.384-.919-5.483-2.643-5.483-5.588,0-3.645,3.241-6.075,7.467-6.075,4.278,0,7.261,2.456,7.354,5.846h-3.065c-.227-1.952-1.944-3.088-4.362-3.088-2.592,0-4.227,1.332-4.227,3.129-.01,2.025,2.181,2.8,3.826,3.223l2.06.537c2.674.661,6.058,2.138,6.058,5.947,0,3.583-2.849,6.2-7.8,6.2-4.722,0-7.673-2.361-7.879-6.192m-36.684,0h3.189c.185,2.3,2.222,3.4,4.67,3.4,2.7,0,4.67-1.364,4.67-3.429,0-1.881-1.738-2.624-3.991-3.223l-2.489-.682c-3.384-.919-5.482-2.643-5.482-5.588,0-3.645,3.24-6.075,7.466-6.075,4.279,0,7.262,2.456,7.355,5.846h-3.065c-.226-1.952-1.944-3.088-4.361-3.088-2.592,0-4.228,1.332-4.228,3.129-.01,2.025,2.181,2.8,3.827,3.223l2.06.537c2.674.661,6.059,2.138,6.059,5.947,0,3.583-2.85,6.2-7.8,6.2-4.724,0-7.677-2.361-7.882-6.192Zm-53.514-1.312v-14H288.5v13.944c0,2.964,2.366,4.627,5.184,4.627,2.839,0,5.194-1.663,5.194-4.627V179.982h3.179v14c0,4.772-3.714,7.509-8.373,7.509S285.318,198.749,285.318,193.977Zm-39.852-3.418c0-6.766,4.023-10.866,9.494-10.866,5.452,0,9.484,4.1,9.484,10.866s-4.032,10.865-9.484,10.865c-5.471,0-9.494-4.111-9.494-10.866Zm3.158,0c0,5.154,2.7,7.95,6.336,7.95s6.336-2.8,6.336-7.95-2.715-7.95-6.336-7.95-6.336,2.8-6.336,7.949Zm146.653-10.577h3.178v21.153h-3.178Zm-36.684,21.153V179.982H371.8v2.748H361.772v6.448h9.34v2.737h-9.34v6.476h10.152v2.744Zm-27.024-21.153h3.178v21.153h-3.178Zm-16.635,21.153V179.982h3.178v18.406h9.546v2.747Zm-46.25,0V179.982h3.177v18.406h9.546v2.747Zm-43.731,0V179.982h7.036c6.2,0,9.912,3.966,9.912,10.546,0,6.61-3.713,10.608-10.131,10.608Zm3.178-2.789H231.6c4.8,0,7.18-2.81,7.18-7.821,0-4.988-2.376-7.756-6.984-7.756h-3.662Zm-9.872,2.789-1.923-5.6H208.1l-1.932,5.6H202.8l7.581-21.154h3.672l7.579,21.154Zm-9.226-8.284h6.377l-3.107-9.027h-.165Zm-12.481,8.284-10.708-15.512h-.194v15.512h-3.179V179.982h2.941l10.719,15.535h.193V179.982h3.148v21.153Zm-20.78,0-1.923-5.6H165.62l-1.931,5.6h-3.374l7.58-21.154h3.672l7.579,21.154Zm-9.227-8.284h6.378l-3.106-9.027h-.165ZM394.928,175.7a1.948,1.948,0,1,1,2.061,1.835c-.039,0-.078,0-.117,0a1.907,1.907,0,0,1-1.944-1.839m-63.708,0a1.948,1.948,0,1,1,2.061,1.835c-.039,0-.078,0-.118,0a1.906,1.906,0,0,1-1.943-1.839M509.8,154.736V136.089h5.085v18.523c0,3.484,2.784,5.508,6.309,5.508s6.322-2.024,6.322-5.508V136.089h5.074v18.647c0,6.39-4.909,9.984-11.4,9.984-6.511,0-11.394-3.594-11.394-9.984m-286.748,1.228h5c.206,2.961,2.675,4.4,5.858,4.4,3.319,0,5.6-1.612,5.61-4.022-.015-2.19-2.016-3.14-5.048-3.912l-3.2-.826c-4.623-1.2-7.49-3.53-7.49-7.579-.014-4.985,4.417-8.317,10.314-8.317,5.98,0,10.025,3.373,10.121,8.138h-4.9c-.257-2.4-2.263-3.813-5.294-3.813-3.182,0-5.074,1.556-5.085,3.677-.027,2.355,2.469,3.333,4.773,3.884l2.633.66c4.225,1.005,8.243,3.237,8.257,8.126-.014,4.971-3.923,8.344-10.656,8.344-6.546,0-10.7-3.154-10.907-8.758Zm234.244-5.743c0-9.089,5.513-14.515,12.864-14.515,6.213,0,10.986,3.856,11.85,9.392h-5.181a6.453,6.453,0,0,0-6.6-4.807c-4.54,0-7.818,3.526-7.818,9.874,0,6.391,3.224,9.93,7.928,9.93,4.224,0,6.9-2.548,6.98-6.57h-6.476V149.53h11.4v3.388c0,7.271-4.979,11.763-11.931,11.763-7.749,0-13.016-5.538-13.016-14.463Zm-30.312-.027c0-9.114,5.527-14.488,12.9-14.488s12.906,5.371,12.906,14.488-5.54,14.487-12.9,14.487-12.9-5.387-12.9-14.49Zm5.116,0c0,6.417,3.223,9.9,7.788,9.9s7.788-3.485,7.788-9.9-3.209-9.9-7.788-9.9-7.788,3.482-7.788,9.9Zm55.453,14.1v-28.2h5.085v23.922h12.371v4.282Zm-70.3,0L404.02,145.082h-.233v19.211H398.7v-28.2h4.551l13.221,19.225h.247V136.089h5.061v28.2Zm-29.557-28.2h5.085v28.2H387.7Zm-18.421,28.2V140.372h-8.682v-4.283h22.411v4.283h-8.682v23.921Zm-13.566,0-2.332-6.954H342.819l-2.318,6.954H335.07l9.888-28.2h6.281l9.9,28.2Zm-11.522-11.058h7.817l-3.8-11.361h-.219ZM317.4,164.293v-28.2H335.4v4.283h-12.9v7.657h11.671v4.284H322.491v11.98Zm-20.973-28.2h5.085v28.2h-5.085Zm-11.329,28.2V144.917h-.257l-7.763,19.294h-3.648l-7.768-19.335h-.257v19.417h-4.883v-28.2h6.227l8.339,20.437h.328l8.335-20.437h6.227v28.2Zm-35.578-28.2h5.089v28.2h-5.089Zm-49.306,28.2v-28.2h18.268v4.283H205.3v7.657h12.233v4.284H205.3v7.7h13.289v4.282Zm-10.439,0-13.24-19.211H176.3v19.211h-5.085v-28.2h4.553l13.221,19.225h.247V136.089h5.06v28.2Zm-38.975,0-13.233-19.211h-.233v19.211h-5.085v-28.2H136.8l13.221,19.225h.247V136.089h5.06v28.2Zm-29.558-28.2h5.085v28.2h-5.085Zm-28.364,28.2v-28.2h9.71c8.368,0,13.441,5.289,13.441,14.075,0,8.813-5.073,14.129-13.634,14.129Zm5.085-4.42h4.184c5.857,0,8.832-3.223,8.832-9.709,0-6.459-2.976-9.654-8.682-9.654H97.965ZM81.881,136.089h5.085v28.2H81.881Zm-25.773,28.2v-28.2h10.75c6.09,0,9.107,3.113,9.107,7.313a5.885,5.885,0,0,1-4.91,6.005v.275c2.989.152,6.006,2.658,6.006,6.927,0,4.4-3.154,7.684-9.586,7.684Zm5.085-4.269h5.472c3.689,0,5.225-1.569,5.225-3.813,0-2.521-1.948-4.448-5.085-4.448H61.2Zm0-11.939h5.033c2.648,0,4.65-1.543,4.65-4.022,0-2.176-1.55-3.759-4.54-3.759H61.193Zm-14.6,16.208-2.334-6.954H33.7l-2.318,6.954h-5.43l9.888-28.2h6.281l9.9,28.2ZM35.068,153.235h7.817l-3.8-11.361h-.222Zm428.6-24.417h3.69a2.715,2.715,0,0,0,5.419,0h3.716c0,3.222-2.482,5.4-6.432,5.4-3.922,0-6.406-2.175-6.393-5.4m-76.3,1.57a2.879,2.879,0,1,1,2.681,2.692,2.882,2.882,0,0,1-2.681-2.692m-91.268,0a2.878,2.878,0,1,1,2.685,2.7,2.883,2.883,0,0,1-2.685-2.7m-46.909,0a2.879,2.879,0,1,1,2.68,2.692,2.883,2.883,0,0,1-2.68-2.692m-128.274,0a2.878,2.878,0,1,1,2.686,2.7,2.884,2.884,0,0,1-2.686-2.7m-39.366,0a2.879,2.879,0,1,1,2.681,2.692,2.882,2.882,0,0,1-2.681-2.692" fill="#fff"/>
        <path id="Path_6865" data-name="Path 6865" d="M471.816,8.164a8.08,8.08,0,1,1-8.046,8.079A8.062,8.062,0,0,1,471.816,8.164Z" fill="none" stroke="#fff" stroke-miterlimit="10" stroke-width="0.643"/>
        <path id="Path_6866" data-name="Path 6866" d="M469.874,21a5.021,5.021,0,0,1-.386-9.053,3.977,3.977,0,1,0,4.656,0A5.009,5.009,0,0,1,469.874,21m1.941-7.691L470.4,14.391l.542-1.753-1.416-1.084h1.747l.539-1.752.539,1.752H474.1l-1.412,1.084.54,1.753Z" fill="#fff"/>
        <path id="Path_6867" data-name="Path 6867" d="M.322,16.481V116.664h560V16.481H528.138V6.786H494.666V.322H449.61V6.786H415.494v9.695H383.31V13.895h19.31L368.84.969H353.493l-34.55,12.926h19.31V40.4H222.391v-26.5H241.7L207.921.969H192.573l-34.55,12.926h19.311v2.586H145.15V6.786H111.678V.322H66.621V6.786H32.506v9.695Z" fill="none" stroke="#fff" stroke-miterlimit="10" stroke-width="0.643"/>
        <path id="Path_6868" data-name="Path 6868" d="M25.747,116.341V32.963H7.08v83.378" fill="none" stroke="#fff" stroke-miterlimit="10" stroke-width="0.643"/>
        <rect id="Rectangle_8079" data-name="Rectangle 8079" width="9.011" height="15.512" transform="translate(12.23 42.658)" fill="none" stroke="#fff" stroke-miterlimit="10" stroke-width="0.643"/>
        <path id="Path_6869" data-name="Path 6869" d="M21.241,50.414H16.735V42.658" fill="none" stroke="#fff" stroke-miterlimit="10" stroke-width="0.643"/>
        <path id="Path_6870" data-name="Path 6870" d="M12.23,50.414h4.506V58.17" fill="none" stroke="#fff" stroke-miterlimit="10" stroke-width="0.643"/>
        <rect id="Rectangle_8080" data-name="Rectangle 8080" width="9.011" height="15.512" transform="translate(12.23 68.512)" fill="none" stroke="#fff" stroke-miterlimit="10" stroke-width="0.643"/>
        <path id="Path_6871" data-name="Path 6871" d="M21.241,76.267H16.735V68.511" fill="none" stroke="#fff" stroke-miterlimit="10" stroke-width="0.643"/>
        <path id="Path_6872" data-name="Path 6872" d="M12.23,76.267h4.506v7.756" fill="none" stroke="#fff" stroke-miterlimit="10" stroke-width="0.643"/>
        <rect id="Rectangle_8081" data-name="Rectangle 8081" width="9.011" height="15.512" transform="translate(12.23 94.365)" fill="none" stroke="#fff" stroke-miterlimit="10" stroke-width="0.643"/>
        <path id="Path_6873" data-name="Path 6873" d="M21.241,102.121H16.735V94.365" fill="none" stroke="#fff" stroke-miterlimit="10" stroke-width="0.643"/>
        <path id="Path_6874" data-name="Path 6874" d="M12.23,102.121h4.506v7.756" fill="none" stroke="#fff" stroke-miterlimit="10" stroke-width="0.643"/>
        <path id="Path_6875" data-name="Path 6875" d="M61.793,116.341V34.255h12.23v82.086" fill="none" stroke="#fff" stroke-miterlimit="10" stroke-width="0.643"/>
        <path id="Path_6876" data-name="Path 6876" d="M77.885,116.341V32.963H99.77v83.378" fill="none" stroke="#fff" stroke-miterlimit="10" stroke-width="0.643"/>
        <line id="Line_534" data-name="Line 534" y1="82.124" transform="translate(92.689 34.54)" fill="none" stroke="#fff" stroke-miterlimit="10" stroke-width="0.643"/>
        <line id="Line_535" data-name="Line 535" y1="82.124" transform="translate(84.965 34.54)" fill="none" stroke="#fff" stroke-miterlimit="10" stroke-width="0.643"/>
        <path id="Path_6877" data-name="Path 6877" d="M77.885,44.6H99.77" fill="none" stroke="#fff" stroke-miterlimit="10" stroke-width="0.643"/>
        <path id="Path_6878" data-name="Path 6878" d="M77.885,54.938H99.77" fill="none" stroke="#fff" stroke-miterlimit="10" stroke-width="0.643"/>
        <path id="Path_6879" data-name="Path 6879" d="M77.885,65.28H99.77" fill="none" stroke="#fff" stroke-miterlimit="10" stroke-width="0.643"/>
        <path id="Path_6880" data-name="Path 6880" d="M77.885,75.621H99.77" fill="none" stroke="#fff" stroke-miterlimit="10" stroke-width="0.643"/>
        <path id="Path_6881" data-name="Path 6881" d="M77.885,85.963H99.77" fill="none" stroke="#fff" stroke-miterlimit="10" stroke-width="0.643"/>
        <path id="Path_6882" data-name="Path 6882" d="M77.885,96.3H99.77" fill="none" stroke="#fff" stroke-miterlimit="10" stroke-width="0.643"/>
        <path id="Path_6883" data-name="Path 6883" d="M77.885,106.646H99.77" fill="none" stroke="#fff" stroke-miterlimit="10" stroke-width="0.643"/>
        <path id="Path_6884" data-name="Path 6884" d="M103.632,116.341V34.255h12.23v82.086" fill="none" stroke="#fff" stroke-miterlimit="10" stroke-width="0.643"/>
        <line id="Line_536" data-name="Line 536" x2="21.885" transform="translate(77.885 34.255)" fill="none" stroke="#fff" stroke-miterlimit="10" stroke-width="0.643"/>
        <path id="Path_6885" data-name="Path 6885" d="M170.574,116.341V32.963H151.908v83.378" fill="none" stroke="#fff" stroke-miterlimit="10" stroke-width="0.643"/>
        <rect id="Rectangle_8082" data-name="Rectangle 8082" width="9.011" height="15.512" transform="translate(157.057 42.658)" fill="none" stroke="#fff" stroke-miterlimit="10" stroke-width="0.643"/>
        <path id="Path_6886" data-name="Path 6886" d="M166.069,50.414h-4.506V42.658" fill="none" stroke="#fff" stroke-miterlimit="10" stroke-width="0.643"/>
        <path id="Path_6887" data-name="Path 6887" d="M157.057,50.414h4.506V58.17" fill="none" stroke="#fff" stroke-miterlimit="10" stroke-width="0.643"/>
        <rect id="Rectangle_8083" data-name="Rectangle 8083" width="9.011" height="15.512" transform="translate(157.057 68.512)" fill="none" stroke="#fff" stroke-miterlimit="10" stroke-width="0.643"/>
        <path id="Path_6888" data-name="Path 6888" d="M166.069,76.267h-4.506V68.511" fill="none" stroke="#fff" stroke-miterlimit="10" stroke-width="0.643"/>
        <path id="Path_6889" data-name="Path 6889" d="M157.057,76.267h4.506v7.756" fill="none" stroke="#fff" stroke-miterlimit="10" stroke-width="0.643"/>
        <rect id="Rectangle_8084" data-name="Rectangle 8084" width="9.011" height="15.512" transform="translate(157.057 94.365)" fill="none" stroke="#fff" stroke-miterlimit="10" stroke-width="0.643"/>
        <path id="Path_6890" data-name="Path 6890" d="M166.069,102.121h-4.506V94.365" fill="none" stroke="#fff" stroke-miterlimit="10" stroke-width="0.643"/>
        <path id="Path_6891" data-name="Path 6891" d="M157.057,102.121h4.506v7.756" fill="none" stroke="#fff" stroke-miterlimit="10" stroke-width="0.643"/>
        <path id="Path_6892" data-name="Path 6892" d="M180.873,73.682V89.194h9.011V73.682Z" fill="none" stroke="#fff" stroke-miterlimit="10" stroke-width="0.643"/>
        <path id="Path_6893" data-name="Path 6893" d="M189.885,81.438h-4.506V73.682" fill="none" stroke="#fff" stroke-miterlimit="10" stroke-width="0.643"/>
        <path id="Path_6894" data-name="Path 6894" d="M185.379,89.194V81.438h-4.506" fill="none" stroke="#fff" stroke-miterlimit="10" stroke-width="0.643"/>
        <rect id="Rectangle_8085" data-name="Rectangle 8085" width="9.011" height="15.512" transform="translate(180.873 47.829)" fill="none" stroke="#fff" stroke-miterlimit="10" stroke-width="0.643"/>
        <path id="Path_6895" data-name="Path 6895" d="M185.379,47.828v7.756h4.506" fill="none" stroke="#fff" stroke-miterlimit="10" stroke-width="0.643"/>
        <path id="Path_6896" data-name="Path 6896" d="M185.379,63.341V55.585h-4.506" fill="none" stroke="#fff" stroke-miterlimit="10" stroke-width="0.643"/>
        <rect id="Rectangle_8086" data-name="Rectangle 8086" width="9.011" height="15.512" transform="translate(196.965 47.829)" fill="none" stroke="#fff" stroke-miterlimit="10" stroke-width="0.643"/>
        <path id="Path_6897" data-name="Path 6897" d="M205.977,55.584h-4.506V47.828" fill="none" stroke="#fff" stroke-miterlimit="10" stroke-width="0.643"/>
        <path id="Path_6898" data-name="Path 6898" d="M196.965,55.584h4.506V63.34" fill="none" stroke="#fff" stroke-miterlimit="10" stroke-width="0.643"/>
        <rect id="Rectangle_8087" data-name="Rectangle 8087" width="9.011" height="15.512" transform="translate(213.057 47.829)" fill="none" stroke="#fff" stroke-miterlimit="10" stroke-width="0.643"/>
        <path id="Path_6899" data-name="Path 6899" d="M217.563,47.828v7.756h4.506" fill="none" stroke="#fff" stroke-miterlimit="10" stroke-width="0.643"/>
        <path id="Path_6900" data-name="Path 6900" d="M213.057,55.584h4.506V63.34" fill="none" stroke="#fff" stroke-miterlimit="10" stroke-width="0.643"/>
        <rect id="Rectangle_8088" data-name="Rectangle 8088" width="9.011" height="15.512" transform="translate(229.149 47.828)" fill="none" stroke="#fff" stroke-miterlimit="10" stroke-width="0.643"/>
        <path id="Path_6901" data-name="Path 6901" d="M238.161,55.584h-4.506V47.828" fill="none" stroke="#fff" stroke-miterlimit="10" stroke-width="0.643"/>
        <path id="Path_6902" data-name="Path 6902" d="M229.149,55.584h4.506V63.34" fill="none" stroke="#fff" stroke-miterlimit="10" stroke-width="0.643"/>
        <rect id="Rectangle_8089" data-name="Rectangle 8089" width="9.011" height="15.512" transform="translate(196.965 73.682)" fill="none" stroke="#fff" stroke-miterlimit="10" stroke-width="0.643"/>
        <path id="Path_6903" data-name="Path 6903" d="M205.977,81.438h-4.506V73.682" fill="none" stroke="#fff" stroke-miterlimit="10" stroke-width="0.643"/>
        <path id="Path_6904" data-name="Path 6904" d="M196.965,81.438h4.506v7.756" fill="none" stroke="#fff" stroke-miterlimit="10" stroke-width="0.643"/>
        <rect id="Rectangle_8090" data-name="Rectangle 8090" width="9.011" height="15.512" transform="translate(213.057 73.682)" fill="none" stroke="#fff" stroke-miterlimit="10" stroke-width="0.643"/>
        <path id="Path_6905" data-name="Path 6905" d="M222.069,81.438h-4.506V73.682" fill="none" stroke="#fff" stroke-miterlimit="10" stroke-width="0.643"/>
        <path id="Path_6906" data-name="Path 6906" d="M213.057,81.438h4.506v7.756" fill="none" stroke="#fff" stroke-miterlimit="10" stroke-width="0.643"/>
        <rect id="Rectangle_8091" data-name="Rectangle 8091" width="9.011" height="15.512" transform="translate(229.149 73.682)" fill="none" stroke="#fff" stroke-miterlimit="10" stroke-width="0.643"/>
        <path id="Path_6907" data-name="Path 6907" d="M238.161,81.438h-4.506V73.682" fill="none" stroke="#fff" stroke-miterlimit="10" stroke-width="0.643"/>
        <path id="Path_6908" data-name="Path 6908" d="M229.149,81.438h4.506v7.756" fill="none" stroke="#fff" stroke-miterlimit="10" stroke-width="0.643"/>
        <rect id="Rectangle_8092" data-name="Rectangle 8092" width="9.011" height="9.049" transform="translate(180.873 96.304)" fill="none" stroke="#fff" stroke-miterlimit="10" stroke-width="0.643"/>
        <rect id="Rectangle_8093" data-name="Rectangle 8093" width="9.011" height="9.049" transform="translate(213.057 96.304)" fill="none" stroke="#fff" stroke-miterlimit="10" stroke-width="0.643"/>
        <rect id="Rectangle_8094" data-name="Rectangle 8094" width="9.011" height="9.049" transform="translate(229.149 96.304)" fill="none" stroke="#fff" stroke-miterlimit="10" stroke-width="0.643"/>
        <path id="Path_6909" data-name="Path 6909" d="M245.241,116.341V55.585H315.4v60.756" fill="none" stroke="#fff" stroke-miterlimit="10" stroke-width="0.643"/>
        <path id="Path_6910" data-name="Path 6910" d="M293.517,116.664V77.883a9.334,9.334,0,1,1,18.667,0v38.781" fill="none" stroke="#fff" stroke-miterlimit="10" stroke-width="0.643"/>
        <path id="Path_6911" data-name="Path 6911" d="M270.988,116.664V77.883a9.334,9.334,0,1,1,18.667,0v38.781" fill="none" stroke="#fff" stroke-miterlimit="10" stroke-width="0.643"/>
        <path id="Path_6912" data-name="Path 6912" d="M267.126,116.664V77.883a9.334,9.334,0,1,0-18.667,0v38.781" fill="none" stroke="#fff" stroke-miterlimit="10" stroke-width="0.643"/>
        <rect id="Rectangle_8095" data-name="Rectangle 8095" width="44.414" height="9.049" transform="translate(258.115 57.523)" fill="none" stroke="#fff" stroke-miterlimit="10" stroke-width="0.643"/>
        <rect id="Rectangle_8096" data-name="Rectangle 8096" width="9.011" height="9.049" transform="translate(196.965 96.304)" fill="none" stroke="#fff" stroke-miterlimit="10" stroke-width="0.643"/>
        <rect id="Rectangle_8097" data-name="Rectangle 8097" width="9.011" height="9.049" transform="translate(322.483 96.304)" fill="none" stroke="#fff" stroke-miterlimit="10" stroke-width="0.643"/>
        <rect id="Rectangle_8098" data-name="Rectangle 8098" width="9.011" height="9.049" transform="translate(338.574 96.304)" fill="none" stroke="#fff" stroke-miterlimit="10" stroke-width="0.643"/>
        <rect id="Rectangle_8099" data-name="Rectangle 8099" width="9.011" height="9.049" transform="translate(354.666 96.304)" fill="none" stroke="#fff" stroke-miterlimit="10" stroke-width="0.643"/>
        <rect id="Rectangle_8100" data-name="Rectangle 8100" width="9.012" height="9.049" transform="translate(370.758 96.304)" fill="none" stroke="#fff" stroke-miterlimit="10" stroke-width="0.643"/>
        <rect id="Rectangle_8101" data-name="Rectangle 8101" width="9.011" height="15.512" transform="translate(322.483 73.682)" fill="none" stroke="#fff" stroke-miterlimit="10" stroke-width="0.643"/>
        <path id="Path_6913" data-name="Path 6913" d="M331.494,81.438h-4.506V73.682" fill="none" stroke="#fff" stroke-miterlimit="10" stroke-width="0.643"/>
        <path id="Path_6914" data-name="Path 6914" d="M322.483,81.438h4.506v7.756" fill="none" stroke="#fff" stroke-miterlimit="10" stroke-width="0.643"/>
        <rect id="Rectangle_8102" data-name="Rectangle 8102" width="9.011" height="15.512" transform="translate(338.574 73.682)" fill="none" stroke="#fff" stroke-miterlimit="10" stroke-width="0.643"/>
        <path id="Path_6915" data-name="Path 6915" d="M347.586,81.438H343.08V73.682" fill="none" stroke="#fff" stroke-miterlimit="10" stroke-width="0.643"/>
        <path id="Path_6916" data-name="Path 6916" d="M338.574,81.438h4.506v7.756" fill="none" stroke="#fff" stroke-miterlimit="10" stroke-width="0.643"/>
        <rect id="Rectangle_8103" data-name="Rectangle 8103" width="9.011" height="15.512" transform="translate(354.666 73.682)" fill="none" stroke="#fff" stroke-miterlimit="10" stroke-width="0.643"/>
        <path id="Path_6917" data-name="Path 6917" d="M363.678,81.438h-4.506V73.682" fill="none" stroke="#fff" stroke-miterlimit="10" stroke-width="0.643"/>
        <path id="Path_6918" data-name="Path 6918" d="M354.666,81.438h4.506v7.756" fill="none" stroke="#fff" stroke-miterlimit="10" stroke-width="0.643"/>
        <rect id="Rectangle_8104" data-name="Rectangle 8104" width="9.012" height="15.512" transform="translate(370.758 73.682)" fill="none" stroke="#fff" stroke-miterlimit="10" stroke-width="0.643"/>
        <path id="Path_6919" data-name="Path 6919" d="M379.77,81.438h-4.506V73.682" fill="none" stroke="#fff" stroke-miterlimit="10" stroke-width="0.643"/>
        <path id="Path_6920" data-name="Path 6920" d="M370.758,81.438h4.506v7.756" fill="none" stroke="#fff" stroke-miterlimit="10" stroke-width="0.643"/>
        <rect id="Rectangle_8105" data-name="Rectangle 8105" width="9.011" height="15.512" transform="translate(322.483 47.829)" fill="none" stroke="#fff" stroke-miterlimit="10" stroke-width="0.643"/>
        <path id="Path_6921" data-name="Path 6921" d="M331.494,55.584h-4.506V47.828" fill="none" stroke="#fff" stroke-miterlimit="10" stroke-width="0.643"/>
        <path id="Path_6922" data-name="Path 6922" d="M322.483,55.584h4.506V63.34" fill="none" stroke="#fff" stroke-miterlimit="10" stroke-width="0.643"/>
        <rect id="Rectangle_8106" data-name="Rectangle 8106" width="9.011" height="15.512" transform="translate(338.574 47.829)" fill="none" stroke="#fff" stroke-miterlimit="10" stroke-width="0.643"/>
        <path id="Path_6923" data-name="Path 6923" d="M347.586,55.584H343.08V47.828" fill="none" stroke="#fff" stroke-miterlimit="10" stroke-width="0.643"/>
        <path id="Path_6924" data-name="Path 6924" d="M338.574,55.584h4.506V63.34" fill="none" stroke="#fff" stroke-miterlimit="10" stroke-width="0.643"/>
        <rect id="Rectangle_8107" data-name="Rectangle 8107" width="9.011" height="15.512" transform="translate(354.666 47.829)" fill="none" stroke="#fff" stroke-miterlimit="10" stroke-width="0.643"/>
        <path id="Path_6925" data-name="Path 6925" d="M363.678,55.584h-4.506V47.828" fill="none" stroke="#fff" stroke-miterlimit="10" stroke-width="0.643"/>
        <path id="Path_6926" data-name="Path 6926" d="M354.666,55.584h4.506V63.34" fill="none" stroke="#fff" stroke-miterlimit="10" stroke-width="0.643"/>
        <rect id="Rectangle_8108" data-name="Rectangle 8108" width="9.012" height="15.512" transform="translate(370.758 47.829)" fill="none" stroke="#fff" stroke-miterlimit="10" stroke-width="0.643"/>
        <path id="Path_6927" data-name="Path 6927" d="M379.77,55.584h-4.506V47.828" fill="none" stroke="#fff" stroke-miterlimit="10" stroke-width="0.643"/>
        <path id="Path_6928" data-name="Path 6928" d="M370.758,55.584h4.506V63.34" fill="none" stroke="#fff" stroke-miterlimit="10" stroke-width="0.643"/>
        <path id="Path_6929" data-name="Path 6929" d="M390.069,116.341V32.963h18.667v83.378" fill="none" stroke="#fff" stroke-miterlimit="10" stroke-width="0.643"/>
        <rect id="Rectangle_8109" data-name="Rectangle 8109" width="9.011" height="15.512" transform="translate(395.218 42.658)" fill="none" stroke="#fff" stroke-miterlimit="10" stroke-width="0.643"/>
        <path id="Path_6930" data-name="Path 6930" d="M404.23,50.414h-4.506V42.658" fill="none" stroke="#fff" stroke-miterlimit="10" stroke-width="0.643"/>
        <path id="Path_6931" data-name="Path 6931" d="M395.218,50.414h4.506V58.17" fill="none" stroke="#fff" stroke-miterlimit="10" stroke-width="0.643"/>
        <rect id="Rectangle_8110" data-name="Rectangle 8110" width="9.011" height="15.512" transform="translate(395.218 68.512)" fill="none" stroke="#fff" stroke-miterlimit="10" stroke-width="0.643"/>
        <path id="Path_6932" data-name="Path 6932" d="M404.23,76.267h-4.506V68.511" fill="none" stroke="#fff" stroke-miterlimit="10" stroke-width="0.643"/>
        <path id="Path_6933" data-name="Path 6933" d="M395.218,76.267h4.506v7.756" fill="none" stroke="#fff" stroke-miterlimit="10" stroke-width="0.643"/>
        <rect id="Rectangle_8111" data-name="Rectangle 8111" width="9.011" height="15.512" transform="translate(395.218 94.365)" fill="none" stroke="#fff" stroke-miterlimit="10" stroke-width="0.643"/>
        <path id="Path_6934" data-name="Path 6934" d="M404.23,102.121h-4.506V94.365" fill="none" stroke="#fff" stroke-miterlimit="10" stroke-width="0.643"/>
        <path id="Path_6935" data-name="Path 6935" d="M395.218,102.121h4.506v7.756" fill="none" stroke="#fff" stroke-miterlimit="10" stroke-width="0.643"/>
        <path id="Path_6936" data-name="Path 6936" d="M444.781,116.341V34.255h12.23v82.086" fill="none" stroke="#fff" stroke-miterlimit="10" stroke-width="0.643"/>
        <path id="Path_6937" data-name="Path 6937" d="M460.873,116.341V32.963h21.885v83.378" fill="none" stroke="#fff" stroke-miterlimit="10" stroke-width="0.643"/>
        <line id="Line_537" data-name="Line 537" y2="82.124" transform="translate(467.954 34.539)" fill="none" stroke="#fff" stroke-miterlimit="10" stroke-width="0.643"/>
        <line id="Line_538" data-name="Line 538" y1="82.124" transform="translate(475.678 34.54)" fill="none" stroke="#fff" stroke-miterlimit="10" stroke-width="0.643"/>
        <line id="Line_539" data-name="Line 539" x2="21.885" transform="translate(460.873 44.597)" fill="none" stroke="#fff" stroke-miterlimit="10" stroke-width="0.643"/>
        <line id="Line_540" data-name="Line 540" x2="21.885" transform="translate(460.873 54.938)" fill="none" stroke="#fff" stroke-miterlimit="10" stroke-width="0.643"/>
        <line id="Line_541" data-name="Line 541" x2="21.885" transform="translate(460.873 65.28)" fill="none" stroke="#fff" stroke-miterlimit="10" stroke-width="0.643"/>
        <line id="Line_542" data-name="Line 542" x2="21.885" transform="translate(460.873 75.621)" fill="none" stroke="#fff" stroke-miterlimit="10" stroke-width="0.643"/>
        <line id="Line_543" data-name="Line 543" x2="21.885" transform="translate(460.873 85.963)" fill="none" stroke="#fff" stroke-miterlimit="10" stroke-width="0.643"/>
        <line id="Line_544" data-name="Line 544" x2="21.885" transform="translate(460.873 96.304)" fill="none" stroke="#fff" stroke-miterlimit="10" stroke-width="0.643"/>
        <line id="Line_545" data-name="Line 545" x2="21.885" transform="translate(460.873 106.646)" fill="none" stroke="#fff" stroke-miterlimit="10" stroke-width="0.643"/>
        <line id="Line_546" data-name="Line 546" x2="21.885" transform="translate(460.873 34.255)" fill="none" stroke="#fff" stroke-miterlimit="10" stroke-width="0.643"/>
        <path id="Path_6938" data-name="Path 6938" d="M486.62,116.341V34.255c.309-.038,12.23,0,12.23,0v82.086" fill="none" stroke="#fff" stroke-miterlimit="10" stroke-width="0.643"/>
        <path id="Path_6939" data-name="Path 6939" d="M534.9,116.341V32.963h18.667v83.378" fill="none" stroke="#fff" stroke-miterlimit="10" stroke-width="0.643"/>
        <rect id="Rectangle_8112" data-name="Rectangle 8112" width="9.011" height="15.512" transform="translate(540.046 94.365)" fill="none" stroke="#fff" stroke-miterlimit="10" stroke-width="0.643"/>
        <path id="Path_6940" data-name="Path 6940" d="M549.057,102.121h-4.506V94.365" fill="none" stroke="#fff" stroke-miterlimit="10" stroke-width="0.643"/>
        <path id="Path_6941" data-name="Path 6941" d="M540.046,102.121h4.506v7.756" fill="none" stroke="#fff" stroke-miterlimit="10" stroke-width="0.643"/>
        <rect id="Rectangle_8113" data-name="Rectangle 8113" width="9.011" height="15.512" transform="translate(540.046 68.512)" fill="none" stroke="#fff" stroke-miterlimit="10" stroke-width="0.643"/>
        <path id="Path_6942" data-name="Path 6942" d="M549.057,76.267h-4.506V68.511" fill="none" stroke="#fff" stroke-miterlimit="10" stroke-width="0.643"/>
        <path id="Path_6943" data-name="Path 6943" d="M540.046,76.267h4.506v7.756" fill="none" stroke="#fff" stroke-miterlimit="10" stroke-width="0.643"/>
        <rect id="Rectangle_8114" data-name="Rectangle 8114" width="9.011" height="15.512" transform="translate(540.046 42.658)" fill="none" stroke="#fff" stroke-miterlimit="10" stroke-width="0.643"/>
        <path id="Path_6944" data-name="Path 6944" d="M549.057,50.414h-4.506V42.658" fill="none" stroke="#fff" stroke-miterlimit="10" stroke-width="0.643"/>
        <path id="Path_6945" data-name="Path 6945" d="M540.046,50.414h4.506V58.17" fill="none" stroke="#fff" stroke-miterlimit="10" stroke-width="0.643"/>
        <path id="Path_6946" data-name="Path 6946" d="M88.956,8.376a8.08,8.08,0,1,1-8.046,8.079A8.062,8.062,0,0,1,88.956,8.376Z" fill="none" stroke="#fff" stroke-miterlimit="10" stroke-width="0.643"/>
        <path id="Path_6947" data-name="Path 6947" d="M87.014,21.209a5.021,5.021,0,0,1-.386-9.053,3.977,3.977,0,1,0,4.656,0,5.009,5.009,0,0,1-4.27,9.053m1.941-7.691L87.543,14.6l.542-1.753-1.416-1.084h1.747l.539-1.752.539,1.752h1.745L89.827,12.85l.54,1.753Z" fill="#fff"/>
      </g>
    </g>
  </g>
</svg>
