<svg xmlns="http://www.w3.org/2000/svg" width="282.5" height="139.5" viewBox="0 0 282.5 139.5">
  <g id="Group_4646" data-name="Group 4646" transform="translate(9001 -2891)">
    <path id="Path_7289" data-name="Path 7289" d="M6,0H276.5a6,6,0,0,1,6,6V133.5a6,6,0,0,1-6,6H6a6,6,0,0,1-6-6V6A6,6,0,0,1,6,0" transform="translate(-9001 2891)" fill="#130291"/>
    <path id="Path_7290" data-name="Path 7290" d="M177.155,105.35h1.2c.07.869.838,1.282,1.761,1.282,1.02,0,1.762-.514,1.762-1.294,0-.709-.656-.989-1.506-1.215l-.938-.257c-1.277-.347-2.068-1-2.068-2.108,0-1.375,1.222-2.291,2.816-2.291,1.614,0,2.739.926,2.774,2.2H181.8c-.085-.737-.733-1.165-1.645-1.165-.977,0-1.594.5-1.594,1.18,0,.764.823,1.056,1.443,1.216l.777.2c1.008.25,2.285.807,2.285,2.243,0,1.352-1.075,2.338-2.941,2.338-1.781,0-2.894-.891-2.972-2.336m-13.836,0h1.2c.07.869.838,1.282,1.761,1.282,1.02,0,1.762-.514,1.762-1.294,0-.709-.656-.989-1.506-1.215l-.939-.257c-1.276-.347-2.067-1-2.067-2.108,0-1.375,1.222-2.291,2.816-2.291,1.614,0,2.739.926,2.774,2.2h-1.156c-.085-.737-.733-1.165-1.645-1.165-.978,0-1.6.5-1.6,1.18,0,.764.823,1.056,1.444,1.216l.777.2c1.008.25,2.285.807,2.285,2.243,0,1.352-1.075,2.338-2.941,2.338C164.51,107.688,163.4,106.795,163.319,105.35Zm-20.184-.495V99.577h1.2v5.259a1.97,1.97,0,0,0,3.915,0V99.577h1.2v5.278a3.174,3.174,0,0,1-6.311,0ZM128.1,103.566c0-2.552,1.517-4.1,3.581-4.1s3.577,1.546,3.577,4.1-1.521,4.1-3.577,4.1S128.1,106.114,128.1,103.566Zm1.191,0c0,1.944,1.02,3,2.39,3s2.39-1.056,2.39-3-1.024-3-2.39-3S129.294,101.622,129.294,103.566Zm55.315-3.989h1.2v7.978h-1.2Zm-13.837,7.978V99.577h4.982v1.036h-3.783v2.432h3.523v1.033h-3.523v2.442h3.83v1.035Zm-10.193-7.978h1.2v7.978h-1.2Zm-6.274,7.978V99.577h1.2v6.942h3.6v1.036Zm-17.445,0V99.577h1.2v6.942h3.6v1.036Zm-16.494,0V99.577h2.654c2.339,0,3.739,1.5,3.739,3.977s-1.4,4-3.822,4Zm1.2-1.052h1.308c1.811,0,2.708-1.059,2.708-2.95s-.9-2.925-2.635-2.925h-1.381Zm-3.724,1.052-.725-2.111h-3.1l-.728,2.111H112.01l2.86-7.978h1.385l2.858,7.978Zm-3.48-3.124h2.406l-1.172-3.4h-.062Zm-4.707,3.124-4.039-5.851h-.073v5.851h-1.2V99.577h1.109l4.043,5.859h.073V99.577h1.187v7.978Zm-7.838,0-.725-2.111h-3.1l-.728,2.111H95.986l2.859-7.978h1.385l2.859,7.978Zm-3.48-3.124h2.406l-1.172-3.4h-.062Zm86.141-6.471a.735.735,0,1,1,.777.692h-.044a.719.719,0,0,1-.733-.693m-24.029,0a.734.734,0,1,1,.777.692h-.044a.719.719,0,0,1-.733-.693m67.355-7.9V83.021h1.918v6.987a2.4,2.4,0,0,0,4.764,0V83.021H236.4v7.034c0,2.41-1.852,3.765-4.3,3.765s-4.3-1.355-4.3-3.765m-108.156.463h1.889c.077,1.116,1.008,1.658,2.209,1.658,1.252,0,2.11-.608,2.116-1.517-.006-.826-.761-1.185-1.9-1.476l-1.205-.311c-1.744-.454-2.825-1.332-2.825-2.859-.005-1.88,1.666-3.137,3.89-3.137,2.255,0,3.781,1.272,3.817,3.07h-1.846c-.1-.9-.854-1.439-2-1.439-1.2,0-1.914.587-1.918,1.387-.01.889.931,1.257,1.8,1.465l.993.249c1.594.379,3.11,1.221,3.115,3.065,0,1.875-1.48,3.147-4.02,3.147-2.468,0-4.036-1.189-4.114-3.3ZM208,88.352c0-3.429,2.079-5.475,4.852-5.475a4.289,4.289,0,0,1,4.469,3.542h-1.954a2.435,2.435,0,0,0-2.488-1.813c-1.713,0-2.949,1.33-2.949,3.725s1.216,3.745,2.99,3.745a2.411,2.411,0,0,0,2.633-2.478H213.11V88.091h4.3v1.278a4.22,4.22,0,0,1-4.5,4.437c-2.923,0-4.909-2.089-4.909-5.455Zm-11.434-.011c0-3.437,2.085-5.464,4.868-5.464S206.3,84.9,206.3,88.341s-2.09,5.465-4.868,5.465-4.867-2.032-4.867-5.466Zm1.93,0c0,2.421,1.216,3.735,2.938,3.735s2.937-1.314,2.937-3.735-1.21-3.734-2.937-3.734S198.5,85.92,198.5,88.34Zm20.916,5.318V83.021h1.918v9.023H226v1.615Zm-26.514,0-4.992-7.246h-.088v7.246H185.9V83.021h1.717l4.987,7.252h.093V83.021H194.6V93.659ZM181.75,83.021h1.918V93.659H181.75ZM174.8,93.659V84.637h-3.275V83.021h8.453v1.616h-3.275v9.022Zm-5.117,0-.88-2.623h-3.982l-.875,2.623H161.9l3.73-10.638H168l3.734,10.638Zm-4.346-4.171h2.949L166.855,85.2h-.082Zm-10.1,4.171V83.021h6.787v1.616h-4.867v2.888h4.4v1.616h-4.4v4.518Zm-7.911-10.638h1.918V93.659h-1.918Zm-4.273,10.638V86.351h-.1l-2.927,7.277h-1.377l-2.929-7.293h-.1v7.324h-1.841V83.021h2.348l3.146,7.709h.124l3.143-7.709h2.349V93.659ZM129.633,83.021h1.919V93.659h-1.919Zm-18.6,10.638V83.021h6.89v1.616h-4.973v2.888h4.614v1.616h-4.614v2.9h5.012v1.615Zm-3.937,0-4.994-7.246h-.088v7.246H100.1V83.021h1.717l4.987,7.252h.093V83.021h1.909V93.659Zm-14.7,0-4.991-7.246h-.088v7.246H85.4V83.021h1.717l4.987,7.252H92.2V83.021h1.909V93.659ZM81.249,83.021h1.918V93.659H81.249Zm-10.7,10.638V83.021h3.663c3.156,0,5.069,1.995,5.069,5.309s-1.913,5.329-5.142,5.329Zm1.918-1.667h1.578c2.209,0,3.331-1.215,3.331-3.662s-1.122-3.641-3.274-3.641H72.469ZM66.4,83.021H68.32V93.659H66.4Zm-9.72,10.638V83.021h4.054c2.3,0,3.435,1.174,3.435,2.759a2.219,2.219,0,0,1-1.852,2.264v.1a2.47,2.47,0,0,1,2.266,2.613c0,1.658-1.19,2.9-3.616,2.9Zm1.918-1.61h2.063c1.392,0,1.971-.592,1.971-1.438a1.723,1.723,0,0,0-1.918-1.678H58.6Zm0-4.5h1.9a1.57,1.57,0,0,0,1.753-1.517c0-.821-.584-1.418-1.712-1.418H58.6Zm-5.508,6.113-.881-2.623H48.228l-.874,2.623H45.306l3.729-10.638H51.4l3.735,10.638Zm-4.346-4.171h2.948L50.262,85.2h-.084ZM210.4,80.279H211.8a1.024,1.024,0,0,0,2.044,0h1.4c0,1.215-.936,2.036-2.426,2.036s-2.416-.821-2.411-2.036m-28.779.592a1.086,1.086,0,1,1,1.011,1.015,1.087,1.087,0,0,1-1.011-1.015m-34.425,0a1.086,1.086,0,1,1,1.013,1.017,1.088,1.088,0,0,1-1.013-1.017m-17.693,0a1.086,1.086,0,1,1,1.011,1.015,1.087,1.087,0,0,1-1.011-1.015m-48.382,0a1.086,1.086,0,1,1,1.013,1.017,1.088,1.088,0,0,1-1.013-1.017m-14.848,0a1.086,1.086,0,1,1,1.011,1.015,1.087,1.087,0,0,1-1.011-1.015" transform="translate(-9001 2891)" fill="#fff"/>
    <path id="Path_7291" data-name="Path 7291" d="M213.478,34.77a3.048,3.048,0,1,1-3.035,3.047A3.041,3.041,0,0,1,213.478,34.77Z" transform="translate(-9001 2891)" fill="none" stroke="#fff" stroke-miterlimit="10" stroke-width="0.243"/>
    <path id="Path_7292" data-name="Path 7292" d="M212.745,39.611A1.895,1.895,0,0,1,212.6,36.2a1.5,1.5,0,1,0,1.757,0,1.89,1.89,0,0,1-1.611,3.415m.732-2.9-.533.409.205-.661-.534-.409h.659l.2-.661.2.661h.658l-.532.409.2.661Z" transform="translate(-9001 2891)" fill="#fff"/>
    <path id="Path_7293" data-name="Path 7293" d="M35.64,37.907V75.694H246.86V37.907H234.721V34.25H222.1V31.812H205.1V34.25H192.234v3.657H180.1v-.975h7.283l-12.741-4.876h-5.789l-13.031,4.876H163.1v9.995H119.4V36.932h7.283l-12.741-4.876h-5.789L95.121,36.932H102.4v.975H90.266V34.25H77.641V31.812H60.646V34.25H47.779v3.657Z" transform="translate(-9001 2891)" fill="none" stroke="#fff" stroke-miterlimit="10" stroke-width="0.243"/>
    <path id="Path_7294" data-name="Path 7294" d="M45.23,75.572V44.123H38.189V75.572" transform="translate(-9001 2891)" fill="none" stroke="#fff" stroke-miterlimit="10" stroke-width="0.243"/>
    <rect id="Rectangle_8302" data-name="Rectangle 8302" width="3.399" height="5.851" transform="translate(-8960.869 2938.781)" fill="none" stroke="#fff" stroke-miterlimit="10" stroke-width="0.243"/>
    <path id="Path_7295" data-name="Path 7295" d="M43.53,50.706h-1.7V47.781" transform="translate(-9001 2891)" fill="none" stroke="#fff" stroke-miterlimit="10" stroke-width="0.243"/>
    <path id="Path_7296" data-name="Path 7296" d="M40.132,50.706h1.7v2.925" transform="translate(-9001 2891)" fill="none" stroke="#fff" stroke-miterlimit="10" stroke-width="0.243"/>
    <rect id="Rectangle_8303" data-name="Rectangle 8303" width="3.399" height="5.851" transform="translate(-8960.869 2948.532)" fill="none" stroke="#fff" stroke-miterlimit="10" stroke-width="0.243"/>
    <path id="Path_7297" data-name="Path 7297" d="M43.53,60.458h-1.7V57.533" transform="translate(-9001 2891)" fill="none" stroke="#fff" stroke-miterlimit="10" stroke-width="0.243"/>
    <path id="Path_7298" data-name="Path 7298" d="M40.132,60.458h1.7v2.925" transform="translate(-9001 2891)" fill="none" stroke="#fff" stroke-miterlimit="10" stroke-width="0.243"/>
    <rect id="Rectangle_8304" data-name="Rectangle 8304" width="3.399" height="5.851" transform="translate(-8960.869 2958.284)" fill="none" stroke="#fff" stroke-miterlimit="10" stroke-width="0.243"/>
    <path id="Path_7299" data-name="Path 7299" d="M43.53,70.209h-1.7V67.284" transform="translate(-9001 2891)" fill="none" stroke="#fff" stroke-miterlimit="10" stroke-width="0.243"/>
    <path id="Path_7300" data-name="Path 7300" d="M40.132,70.209h1.7v2.925" transform="translate(-9001 2891)" fill="none" stroke="#fff" stroke-miterlimit="10" stroke-width="0.243"/>
    <path id="Path_7301" data-name="Path 7301" d="M58.826,75.572V44.611h4.613V75.572" transform="translate(-9001 2891)" fill="none" stroke="#fff" stroke-miterlimit="10" stroke-width="0.243"/>
    <path id="Path_7302" data-name="Path 7302" d="M64.9,75.572V44.123H73.15V75.572" transform="translate(-9001 2891)" fill="none" stroke="#fff" stroke-miterlimit="10" stroke-width="0.243"/>
    <line id="Line_606" data-name="Line 606" y1="30.976" transform="translate(-8930.521 2935.718)" fill="none" stroke="#fff" stroke-miterlimit="10" stroke-width="0.243"/>
    <line id="Line_607" data-name="Line 607" y1="30.976" transform="translate(-8933.435 2935.718)" fill="none" stroke="#fff" stroke-miterlimit="10" stroke-width="0.243"/>
    <path id="Path_7303" data-name="Path 7303" d="M64.9,48.512H73.15" transform="translate(-9001 2891)" fill="none" stroke="#fff" stroke-miterlimit="10" stroke-width="0.243"/>
    <path id="Path_7304" data-name="Path 7304" d="M64.9,52.413H73.15" transform="translate(-9001 2891)" fill="none" stroke="#fff" stroke-miterlimit="10" stroke-width="0.243"/>
    <path id="Path_7305" data-name="Path 7305" d="M64.9,56.313H73.15" transform="translate(-9001 2891)" fill="none" stroke="#fff" stroke-miterlimit="10" stroke-width="0.243"/>
    <path id="Path_7306" data-name="Path 7306" d="M64.9,60.214H73.15" transform="translate(-9001 2891)" fill="none" stroke="#fff" stroke-miterlimit="10" stroke-width="0.243"/>
    <path id="Path_7307" data-name="Path 7307" d="M64.9,64.114H73.15" transform="translate(-9001 2891)" fill="none" stroke="#fff" stroke-miterlimit="10" stroke-width="0.243"/>
    <path id="Path_7308" data-name="Path 7308" d="M64.9,68.015H73.15" transform="translate(-9001 2891)" fill="none" stroke="#fff" stroke-miterlimit="10" stroke-width="0.243"/>
    <path id="Path_7309" data-name="Path 7309" d="M64.9,71.916H73.15" transform="translate(-9001 2891)" fill="none" stroke="#fff" stroke-miterlimit="10" stroke-width="0.243"/>
    <path id="Path_7310" data-name="Path 7310" d="M74.606,75.572V44.611h4.613V75.572" transform="translate(-9001 2891)" fill="none" stroke="#fff" stroke-miterlimit="10" stroke-width="0.243"/>
    <line id="Line_608" data-name="Line 608" x2="8.255" transform="translate(-8936.104 2935.612)" fill="none" stroke="#fff" stroke-miterlimit="10" stroke-width="0.243"/>
    <path id="Path_7311" data-name="Path 7311" d="M99.856,75.572V44.123H92.815V75.572" transform="translate(-9001 2891)" fill="none" stroke="#fff" stroke-miterlimit="10" stroke-width="0.243"/>
    <rect id="Rectangle_8305" data-name="Rectangle 8305" width="3.399" height="5.851" transform="translate(-8906.243 2938.781)" fill="none" stroke="#fff" stroke-miterlimit="10" stroke-width="0.243"/>
    <path id="Path_7312" data-name="Path 7312" d="M98.156,50.706h-1.7V47.781" transform="translate(-9001 2891)" fill="none" stroke="#fff" stroke-miterlimit="10" stroke-width="0.243"/>
    <path id="Path_7313" data-name="Path 7313" d="M94.757,50.706h1.7v2.925" transform="translate(-9001 2891)" fill="none" stroke="#fff" stroke-miterlimit="10" stroke-width="0.243"/>
    <rect id="Rectangle_8306" data-name="Rectangle 8306" width="3.399" height="5.851" transform="translate(-8906.243 2948.532)" fill="none" stroke="#fff" stroke-miterlimit="10" stroke-width="0.243"/>
    <path id="Path_7314" data-name="Path 7314" d="M98.156,60.458h-1.7V57.533" transform="translate(-9001 2891)" fill="none" stroke="#fff" stroke-miterlimit="10" stroke-width="0.243"/>
    <path id="Path_7315" data-name="Path 7315" d="M94.757,60.458h1.7v2.925" transform="translate(-9001 2891)" fill="none" stroke="#fff" stroke-miterlimit="10" stroke-width="0.243"/>
    <rect id="Rectangle_8307" data-name="Rectangle 8307" width="3.399" height="5.851" transform="translate(-8906.243 2958.284)" fill="none" stroke="#fff" stroke-miterlimit="10" stroke-width="0.243"/>
    <path id="Path_7316" data-name="Path 7316" d="M98.156,70.209h-1.7V67.284" transform="translate(-9001 2891)" fill="none" stroke="#fff" stroke-miterlimit="10" stroke-width="0.243"/>
    <path id="Path_7317" data-name="Path 7317" d="M94.757,70.209h1.7v2.925" transform="translate(-9001 2891)" fill="none" stroke="#fff" stroke-miterlimit="10" stroke-width="0.243"/>
    <path id="Path_7318" data-name="Path 7318" d="M103.74,59.482v5.851h3.4V59.482Z" transform="translate(-9001 2891)" fill="none" stroke="#fff" stroke-miterlimit="10" stroke-width="0.243"/>
    <path id="Path_7319" data-name="Path 7319" d="M107.139,62.408h-1.7V59.483" transform="translate(-9001 2891)" fill="none" stroke="#fff" stroke-miterlimit="10" stroke-width="0.243"/>
    <path id="Path_7320" data-name="Path 7320" d="M105.44,65.333V62.408h-1.7" transform="translate(-9001 2891)" fill="none" stroke="#fff" stroke-miterlimit="10" stroke-width="0.243"/>
    <rect id="Rectangle_8308" data-name="Rectangle 8308" width="3.399" height="5.851" transform="translate(-8897.26 2940.731)" fill="none" stroke="#fff" stroke-miterlimit="10" stroke-width="0.243"/>
    <path id="Path_7321" data-name="Path 7321" d="M105.44,49.731v2.925h1.7" transform="translate(-9001 2891)" fill="none" stroke="#fff" stroke-miterlimit="10" stroke-width="0.243"/>
    <path id="Path_7322" data-name="Path 7322" d="M105.44,55.582V52.657h-1.7" transform="translate(-9001 2891)" fill="none" stroke="#fff" stroke-miterlimit="10" stroke-width="0.243"/>
    <rect id="Rectangle_8309" data-name="Rectangle 8309" width="3.399" height="5.851" transform="translate(-8891.19 2940.731)" fill="none" stroke="#fff" stroke-miterlimit="10" stroke-width="0.243"/>
    <path id="Path_7323" data-name="Path 7323" d="M113.209,52.656h-1.7V49.731" transform="translate(-9001 2891)" fill="none" stroke="#fff" stroke-miterlimit="10" stroke-width="0.243"/>
    <path id="Path_7324" data-name="Path 7324" d="M109.81,52.656h1.7v2.925" transform="translate(-9001 2891)" fill="none" stroke="#fff" stroke-miterlimit="10" stroke-width="0.243"/>
    <rect id="Rectangle_8310" data-name="Rectangle 8310" width="3.399" height="5.851" transform="translate(-8885.121 2940.731)" fill="none" stroke="#fff" stroke-miterlimit="10" stroke-width="0.243"/>
    <path id="Path_7325" data-name="Path 7325" d="M117.579,49.731v2.925h1.7" transform="translate(-9001 2891)" fill="none" stroke="#fff" stroke-miterlimit="10" stroke-width="0.243"/>
    <path id="Path_7326" data-name="Path 7326" d="M115.879,52.656h1.7v2.925" transform="translate(-9001 2891)" fill="none" stroke="#fff" stroke-miterlimit="10" stroke-width="0.243"/>
    <rect id="Rectangle_8311" data-name="Rectangle 8311" width="3.399" height="5.851" transform="translate(-8879.051 2940.731)" fill="none" stroke="#fff" stroke-miterlimit="10" stroke-width="0.243"/>
    <path id="Path_7327" data-name="Path 7327" d="M125.348,52.656h-1.7V49.731" transform="translate(-9001 2891)" fill="none" stroke="#fff" stroke-miterlimit="10" stroke-width="0.243"/>
    <path id="Path_7328" data-name="Path 7328" d="M121.949,52.656h1.7v2.925" transform="translate(-9001 2891)" fill="none" stroke="#fff" stroke-miterlimit="10" stroke-width="0.243"/>
    <rect id="Rectangle_8312" data-name="Rectangle 8312" width="3.399" height="5.851" transform="translate(-8891.19 2950.482)" fill="none" stroke="#fff" stroke-miterlimit="10" stroke-width="0.243"/>
    <path id="Path_7329" data-name="Path 7329" d="M113.209,62.408h-1.7V59.483" transform="translate(-9001 2891)" fill="none" stroke="#fff" stroke-miterlimit="10" stroke-width="0.243"/>
    <path id="Path_7330" data-name="Path 7330" d="M109.81,62.408h1.7v2.925" transform="translate(-9001 2891)" fill="none" stroke="#fff" stroke-miterlimit="10" stroke-width="0.243"/>
    <rect id="Rectangle_8313" data-name="Rectangle 8313" width="3.399" height="5.851" transform="translate(-8885.121 2950.482)" fill="none" stroke="#fff" stroke-miterlimit="10" stroke-width="0.243"/>
    <path id="Path_7331" data-name="Path 7331" d="M119.278,62.408h-1.7V59.483" transform="translate(-9001 2891)" fill="none" stroke="#fff" stroke-miterlimit="10" stroke-width="0.243"/>
    <path id="Path_7332" data-name="Path 7332" d="M115.879,62.408h1.7v2.925" transform="translate(-9001 2891)" fill="none" stroke="#fff" stroke-miterlimit="10" stroke-width="0.243"/>
    <rect id="Rectangle_8314" data-name="Rectangle 8314" width="3.399" height="5.851" transform="translate(-8879.051 2950.482)" fill="none" stroke="#fff" stroke-miterlimit="10" stroke-width="0.243"/>
    <path id="Path_7333" data-name="Path 7333" d="M125.348,62.408h-1.7V59.483" transform="translate(-9001 2891)" fill="none" stroke="#fff" stroke-miterlimit="10" stroke-width="0.243"/>
    <path id="Path_7334" data-name="Path 7334" d="M121.949,62.408h1.7v2.925" transform="translate(-9001 2891)" fill="none" stroke="#fff" stroke-miterlimit="10" stroke-width="0.243"/>
    <rect id="Rectangle_8315" data-name="Rectangle 8315" width="3.399" height="3.413" transform="translate(-8897.26 2959.015)" fill="none" stroke="#fff" stroke-miterlimit="10" stroke-width="0.243"/>
    <rect id="Rectangle_8316" data-name="Rectangle 8316" width="3.399" height="3.413" transform="translate(-8885.121 2959.015)" fill="none" stroke="#fff" stroke-miterlimit="10" stroke-width="0.243"/>
    <rect id="Rectangle_8317" data-name="Rectangle 8317" width="3.399" height="3.413" transform="translate(-8879.051 2959.015)" fill="none" stroke="#fff" stroke-miterlimit="10" stroke-width="0.243"/>
    <path id="Path_7335" data-name="Path 7335" d="M128.018,75.572V52.656h26.463V75.572" transform="translate(-9001 2891)" fill="none" stroke="#fff" stroke-miterlimit="10" stroke-width="0.243"/>
    <path id="Path_7336" data-name="Path 7336" d="M146.227,75.694V61.067a3.521,3.521,0,1,1,7.041,0V75.694" transform="translate(-9001 2891)" fill="none" stroke="#fff" stroke-miterlimit="10" stroke-width="0.243"/>
    <path id="Path_7337" data-name="Path 7337" d="M137.73,75.694V61.067a3.521,3.521,0,1,1,7.041,0V75.694" transform="translate(-9001 2891)" fill="none" stroke="#fff" stroke-miterlimit="10" stroke-width="0.243"/>
    <path id="Path_7338" data-name="Path 7338" d="M136.273,75.694V61.067a3.521,3.521,0,1,0-7.041,0V75.694" transform="translate(-9001 2891)" fill="none" stroke="#fff" stroke-miterlimit="10" stroke-width="0.243"/>
    <rect id="Rectangle_8318" data-name="Rectangle 8318" width="16.752" height="3.413" transform="translate(-8868.126 2944.388)" fill="none" stroke="#fff" stroke-miterlimit="10" stroke-width="0.243"/>
    <rect id="Rectangle_8319" data-name="Rectangle 8319" width="3.399" height="3.413" transform="translate(-8891.19 2959.015)" fill="none" stroke="#fff" stroke-miterlimit="10" stroke-width="0.243"/>
    <rect id="Rectangle_8320" data-name="Rectangle 8320" width="3.399" height="3.413" transform="translate(-8843.848 2959.015)" fill="none" stroke="#fff" stroke-miterlimit="10" stroke-width="0.243"/>
    <rect id="Rectangle_8321" data-name="Rectangle 8321" width="3.399" height="3.413" transform="translate(-8837.778 2959.015)" fill="none" stroke="#fff" stroke-miterlimit="10" stroke-width="0.243"/>
    <rect id="Rectangle_8322" data-name="Rectangle 8322" width="3.399" height="3.413" transform="translate(-8831.709 2959.015)" fill="none" stroke="#fff" stroke-miterlimit="10" stroke-width="0.243"/>
    <rect id="Rectangle_8323" data-name="Rectangle 8323" width="3.399" height="3.413" transform="translate(-8825.639 2959.015)" fill="none" stroke="#fff" stroke-miterlimit="10" stroke-width="0.243"/>
    <rect id="Rectangle_8324" data-name="Rectangle 8324" width="3.399" height="5.851" transform="translate(-8843.848 2950.482)" fill="none" stroke="#fff" stroke-miterlimit="10" stroke-width="0.243"/>
    <path id="Path_7339" data-name="Path 7339" d="M160.551,62.408h-1.7V59.483" transform="translate(-9001 2891)" fill="none" stroke="#fff" stroke-miterlimit="10" stroke-width="0.243"/>
    <path id="Path_7340" data-name="Path 7340" d="M157.152,62.408h1.7v2.925" transform="translate(-9001 2891)" fill="none" stroke="#fff" stroke-miterlimit="10" stroke-width="0.243"/>
    <rect id="Rectangle_8325" data-name="Rectangle 8325" width="3.399" height="5.851" transform="translate(-8837.778 2950.482)" fill="none" stroke="#fff" stroke-miterlimit="10" stroke-width="0.243"/>
    <path id="Path_7341" data-name="Path 7341" d="M166.621,62.408h-1.7V59.483" transform="translate(-9001 2891)" fill="none" stroke="#fff" stroke-miterlimit="10" stroke-width="0.243"/>
    <path id="Path_7342" data-name="Path 7342" d="M163.222,62.408h1.7v2.925" transform="translate(-9001 2891)" fill="none" stroke="#fff" stroke-miterlimit="10" stroke-width="0.243"/>
    <rect id="Rectangle_8326" data-name="Rectangle 8326" width="3.399" height="5.851" transform="translate(-8831.709 2950.482)" fill="none" stroke="#fff" stroke-miterlimit="10" stroke-width="0.243"/>
    <path id="Path_7343" data-name="Path 7343" d="M172.69,62.408h-1.7V59.483" transform="translate(-9001 2891)" fill="none" stroke="#fff" stroke-miterlimit="10" stroke-width="0.243"/>
    <path id="Path_7344" data-name="Path 7344" d="M169.291,62.408h1.7v2.925" transform="translate(-9001 2891)" fill="none" stroke="#fff" stroke-miterlimit="10" stroke-width="0.243"/>
    <rect id="Rectangle_8327" data-name="Rectangle 8327" width="3.399" height="5.851" transform="translate(-8825.639 2950.482)" fill="none" stroke="#fff" stroke-miterlimit="10" stroke-width="0.243"/>
    <path id="Path_7345" data-name="Path 7345" d="M178.76,62.408h-1.7V59.483" transform="translate(-9001 2891)" fill="none" stroke="#fff" stroke-miterlimit="10" stroke-width="0.243"/>
    <path id="Path_7346" data-name="Path 7346" d="M175.361,62.408h1.7v2.925" transform="translate(-9001 2891)" fill="none" stroke="#fff" stroke-miterlimit="10" stroke-width="0.243"/>
    <rect id="Rectangle_8328" data-name="Rectangle 8328" width="3.399" height="5.851" transform="translate(-8843.848 2940.731)" fill="none" stroke="#fff" stroke-miterlimit="10" stroke-width="0.243"/>
    <path id="Path_7347" data-name="Path 7347" d="M160.551,52.656h-1.7V49.731" transform="translate(-9001 2891)" fill="none" stroke="#fff" stroke-miterlimit="10" stroke-width="0.243"/>
    <path id="Path_7348" data-name="Path 7348" d="M157.152,52.656h1.7v2.925" transform="translate(-9001 2891)" fill="none" stroke="#fff" stroke-miterlimit="10" stroke-width="0.243"/>
    <rect id="Rectangle_8329" data-name="Rectangle 8329" width="3.399" height="5.851" transform="translate(-8837.778 2940.731)" fill="none" stroke="#fff" stroke-miterlimit="10" stroke-width="0.243"/>
    <path id="Path_7349" data-name="Path 7349" d="M166.621,52.656h-1.7V49.731" transform="translate(-9001 2891)" fill="none" stroke="#fff" stroke-miterlimit="10" stroke-width="0.243"/>
    <path id="Path_7350" data-name="Path 7350" d="M163.222,52.656h1.7v2.925" transform="translate(-9001 2891)" fill="none" stroke="#fff" stroke-miterlimit="10" stroke-width="0.243"/>
    <rect id="Rectangle_8330" data-name="Rectangle 8330" width="3.399" height="5.851" transform="translate(-8831.709 2940.731)" fill="none" stroke="#fff" stroke-miterlimit="10" stroke-width="0.243"/>
    <path id="Path_7351" data-name="Path 7351" d="M172.69,52.656h-1.7V49.731" transform="translate(-9001 2891)" fill="none" stroke="#fff" stroke-miterlimit="10" stroke-width="0.243"/>
    <path id="Path_7352" data-name="Path 7352" d="M169.291,52.656h1.7v2.925" transform="translate(-9001 2891)" fill="none" stroke="#fff" stroke-miterlimit="10" stroke-width="0.243"/>
    <rect id="Rectangle_8331" data-name="Rectangle 8331" width="3.399" height="5.851" transform="translate(-8825.639 2940.731)" fill="none" stroke="#fff" stroke-miterlimit="10" stroke-width="0.243"/>
    <path id="Path_7353" data-name="Path 7353" d="M178.76,52.656h-1.7V49.731" transform="translate(-9001 2891)" fill="none" stroke="#fff" stroke-miterlimit="10" stroke-width="0.243"/>
    <path id="Path_7354" data-name="Path 7354" d="M175.361,52.656h1.7v2.925" transform="translate(-9001 2891)" fill="none" stroke="#fff" stroke-miterlimit="10" stroke-width="0.243"/>
    <path id="Path_7355" data-name="Path 7355" d="M182.644,75.572V44.123h7.041V75.572" transform="translate(-9001 2891)" fill="none" stroke="#fff" stroke-miterlimit="10" stroke-width="0.243"/>
    <rect id="Rectangle_8332" data-name="Rectangle 8332" width="3.399" height="5.851" transform="translate(-8816.414 2938.781)" fill="none" stroke="#fff" stroke-miterlimit="10" stroke-width="0.243"/>
    <path id="Path_7356" data-name="Path 7356" d="M187.985,50.706h-1.7V47.781" transform="translate(-9001 2891)" fill="none" stroke="#fff" stroke-miterlimit="10" stroke-width="0.243"/>
    <path id="Path_7357" data-name="Path 7357" d="M184.587,50.706h1.7v2.925" transform="translate(-9001 2891)" fill="none" stroke="#fff" stroke-miterlimit="10" stroke-width="0.243"/>
    <rect id="Rectangle_8333" data-name="Rectangle 8333" width="3.399" height="5.851" transform="translate(-8816.414 2948.532)" fill="none" stroke="#fff" stroke-miterlimit="10" stroke-width="0.243"/>
    <path id="Path_7358" data-name="Path 7358" d="M187.985,60.458h-1.7V57.533" transform="translate(-9001 2891)" fill="none" stroke="#fff" stroke-miterlimit="10" stroke-width="0.243"/>
    <path id="Path_7359" data-name="Path 7359" d="M184.587,60.458h1.7v2.925" transform="translate(-9001 2891)" fill="none" stroke="#fff" stroke-miterlimit="10" stroke-width="0.243"/>
    <rect id="Rectangle_8334" data-name="Rectangle 8334" width="3.399" height="5.851" transform="translate(-8816.414 2958.284)" fill="none" stroke="#fff" stroke-miterlimit="10" stroke-width="0.243"/>
    <path id="Path_7360" data-name="Path 7360" d="M187.985,70.209h-1.7V67.284" transform="translate(-9001 2891)" fill="none" stroke="#fff" stroke-miterlimit="10" stroke-width="0.243"/>
    <path id="Path_7361" data-name="Path 7361" d="M184.587,70.209h1.7v2.925" transform="translate(-9001 2891)" fill="none" stroke="#fff" stroke-miterlimit="10" stroke-width="0.243"/>
    <path id="Path_7362" data-name="Path 7362" d="M203.281,75.572V44.611h4.613V75.572" transform="translate(-9001 2891)" fill="none" stroke="#fff" stroke-miterlimit="10" stroke-width="0.243"/>
    <path id="Path_7363" data-name="Path 7363" d="M209.35,75.572V44.123h8.255V75.572" transform="translate(-9001 2891)" fill="none" stroke="#fff" stroke-miterlimit="10" stroke-width="0.243"/>
    <line id="Line_609" data-name="Line 609" y2="30.976" transform="translate(-8788.979 2935.719)" fill="none" stroke="#fff" stroke-miterlimit="10" stroke-width="0.243"/>
    <line id="Line_610" data-name="Line 610" y1="30.976" transform="translate(-8786.065 2935.718)" fill="none" stroke="#fff" stroke-miterlimit="10" stroke-width="0.243"/>
    <line id="Line_611" data-name="Line 611" x2="8.255" transform="translate(-8791.649 2939.512)" fill="none" stroke="#fff" stroke-miterlimit="10" stroke-width="0.243"/>
    <line id="Line_612" data-name="Line 612" x2="8.255" transform="translate(-8791.649 2943.413)" fill="none" stroke="#fff" stroke-miterlimit="10" stroke-width="0.243"/>
    <line id="Line_613" data-name="Line 613" x2="8.255" transform="translate(-8791.649 2947.313)" fill="none" stroke="#fff" stroke-miterlimit="10" stroke-width="0.243"/>
    <line id="Line_614" data-name="Line 614" x2="8.255" transform="translate(-8791.649 2951.214)" fill="none" stroke="#fff" stroke-miterlimit="10" stroke-width="0.243"/>
    <line id="Line_615" data-name="Line 615" x2="8.255" transform="translate(-8791.649 2955.115)" fill="none" stroke="#fff" stroke-miterlimit="10" stroke-width="0.243"/>
    <line id="Line_616" data-name="Line 616" x2="8.255" transform="translate(-8791.649 2959.015)" fill="none" stroke="#fff" stroke-miterlimit="10" stroke-width="0.243"/>
    <line id="Line_617" data-name="Line 617" x2="8.255" transform="translate(-8791.649 2962.916)" fill="none" stroke="#fff" stroke-miterlimit="10" stroke-width="0.243"/>
    <line id="Line_618" data-name="Line 618" x2="8.255" transform="translate(-8791.649 2935.612)" fill="none" stroke="#fff" stroke-miterlimit="10" stroke-width="0.243"/>
    <path id="Path_7364" data-name="Path 7364" d="M219.061,75.572V44.611c.117-.015,4.613,0,4.613,0V75.572" transform="translate(-9001 2891)" fill="none" stroke="#fff" stroke-miterlimit="10" stroke-width="0.243"/>
    <path id="Path_7365" data-name="Path 7365" d="M237.27,75.572V44.123h7.041V75.572" transform="translate(-9001 2891)" fill="none" stroke="#fff" stroke-miterlimit="10" stroke-width="0.243"/>
    <rect id="Rectangle_8335" data-name="Rectangle 8335" width="3.399" height="5.851" transform="translate(-8761.788 2958.284)" fill="none" stroke="#fff" stroke-miterlimit="10" stroke-width="0.243"/>
    <path id="Path_7366" data-name="Path 7366" d="M242.611,70.209h-1.7V67.284" transform="translate(-9001 2891)" fill="none" stroke="#fff" stroke-miterlimit="10" stroke-width="0.243"/>
    <path id="Path_7367" data-name="Path 7367" d="M239.212,70.209h1.7v2.925" transform="translate(-9001 2891)" fill="none" stroke="#fff" stroke-miterlimit="10" stroke-width="0.243"/>
    <rect id="Rectangle_8336" data-name="Rectangle 8336" width="3.399" height="5.851" transform="translate(-8761.788 2948.532)" fill="none" stroke="#fff" stroke-miterlimit="10" stroke-width="0.243"/>
    <path id="Path_7368" data-name="Path 7368" d="M242.611,60.458h-1.7V57.533" transform="translate(-9001 2891)" fill="none" stroke="#fff" stroke-miterlimit="10" stroke-width="0.243"/>
    <path id="Path_7369" data-name="Path 7369" d="M239.212,60.458h1.7v2.925" transform="translate(-9001 2891)" fill="none" stroke="#fff" stroke-miterlimit="10" stroke-width="0.243"/>
    <rect id="Rectangle_8337" data-name="Rectangle 8337" width="3.399" height="5.851" transform="translate(-8761.788 2938.781)" fill="none" stroke="#fff" stroke-miterlimit="10" stroke-width="0.243"/>
    <path id="Path_7370" data-name="Path 7370" d="M242.611,50.706h-1.7V47.781" transform="translate(-9001 2891)" fill="none" stroke="#fff" stroke-miterlimit="10" stroke-width="0.243"/>
    <path id="Path_7371" data-name="Path 7371" d="M239.212,50.706h1.7v2.925" transform="translate(-9001 2891)" fill="none" stroke="#fff" stroke-miterlimit="10" stroke-width="0.243"/>
    <path id="Path_7372" data-name="Path 7372" d="M69.071,34.85A3.048,3.048,0,1,1,66.036,37.9,3.041,3.041,0,0,1,69.071,34.85Z" transform="translate(-9001 2891)" fill="none" stroke="#fff" stroke-miterlimit="10" stroke-width="0.243"/>
    <path id="Path_7373" data-name="Path 7373" d="M68.339,39.691a1.895,1.895,0,0,1-.146-3.415,1.5,1.5,0,1,0,1.757,0,1.89,1.89,0,0,1-1.611,3.415m.732-2.9-.533.409.2-.661-.534-.409h.659l.2-.661.2.661h.658l-.532.409.2.661Z" transform="translate(-9001 2891)" fill="#fff"/>
  </g>
</svg>
