<svg xmlns="http://www.w3.org/2000/svg" xmlns:xlink="http://www.w3.org/1999/xlink" width="750" height="370" viewBox="0 0 750 370">
  <defs>
    <clipPath id="clip-path">
      <rect id="Rectangle_8226" data-name="Rectangle 8226" width="560" height="86.038" transform="translate(0 0)" fill="none"/>
    </clipPath>
  </defs>
  <g id="Group_1753" data-name="Group 1753" transform="translate(1056 -7911)">
    <rect id="Rectangle_8225" data-name="Rectangle 8225" width="750" height="370" rx="12" transform="translate(-1056 7911)" fill="#130291"/>
    <g id="Group_1751" data-name="Group 1751" transform="translate(-961 8052.981)">
      <path id="Path_7110" data-name="Path 7110" d="M25.593,31.789h.387l4.985,16.506H20.607ZM16.507,18.014,0,68.023H14.653l2.879-9.572H34.04l2.879,9.572H51.572L35.065,18.014Z" fill="#fff"/>
      <path id="Path_7111" data-name="Path 7111" d="M99.683,68.023H88.357L70.286,41.747h-.3V68.023H56.412V18.014H67.939L85.719,44.189H86.1V18.014H99.683Z" fill="#fff"/>
      <path id="Path_7112" data-name="Path 7112" d="M106.174,18.014H141.34v10.94H119.753v8.592h19.437V48.491H119.753V68.023H106.174Z" fill="#fff"/>
      <g id="Group_1750" data-name="Group 1750">
        <g id="Group_1749" data-name="Group 1749" clip-path="url(#clip-path)">
          <path id="Path_7113" data-name="Path 7113" d="M272.861,68.707c-12.99,0-22.54-9.719-22.54-25.688,0-15.992,9.55-25.688,22.54-25.688,12.939,0,22.512,9.7,22.512,25.688S285.8,68.707,272.861,68.707m0-44.492c-8.621,0-15.045,6.621-15.045,18.8s6.424,18.8,15.045,18.8c8.593,0,15.04-6.621,15.04-18.8s-6.447-18.8-15.04-18.8" fill="#fff"/>
          <path id="Path_7114" data-name="Path 7114" d="M302.256,18.014H309.8V41.893h.611l20.977-23.879h9.494L320.718,40.526l20.238,27.5h-9.08L315.711,45.679l-5.91,6.789V68.023h-7.545Z" fill="#fff"/>
          <path id="Path_7115" data-name="Path 7115" d="M379.927,34.275c-1.244-6.47-6.593-10.06-12.967-10.06-8.621,0-15.068,6.666-15.068,18.8,0,12.233,6.475,18.8,15.045,18.8,6.324,0,11.7-3.518,12.99-9.915l7.618.023c-1.535,9.231-8.643,15.874-18.535,16.681l-.291,1.49c2.806.436,5.3,2.145,5.3,5.831.022,4.419-3.9,7.4-11.136,7.4l-.146-4.078c3.372,0,5.691-.924,5.714-3.1s-1.541-2.885-5.126-3.227l.9-4.369c-11.6-1.243-19.829-10.67-19.829-25.542,0-15.992,9.551-25.688,22.49-25.688,10.575,0,18.949,6.251,20.658,16.944Z" fill="#fff"/>
          <path id="Path_7116" data-name="Path 7116" d="M434.159,18.014V51.1c0,11.282-8.817,17.751-19.879,17.751S394.428,62.383,394.428,51.1V18.014h7.545V50.978c0,7.008,5.619,10.94,12.307,10.94,6.738,0,12.334-3.932,12.334-10.94V18.014Z" fill="#fff"/>
          <path id="Path_7117" data-name="Path 7117" d="M441.042,18.014h7.545V61.526h22.658v6.5h-30.2Z" fill="#fff"/>
          <path id="Path_7118" data-name="Path 7118" d="M514.417,18.014V51.1c0,11.282-8.817,17.751-19.879,17.751S474.686,62.383,474.686,51.1V18.014h7.545V50.978c0,7.008,5.619,10.94,12.307,10.94,6.738,0,12.334-3.932,12.334-10.94V18.014Z" fill="#fff"/>
          <path id="Path_7119" data-name="Path 7119" d="M521.3,18.014h7.545V41.893h.611l20.977-23.879h9.494L539.762,40.526,560,68.023h-9.08L534.755,45.679l-5.91,6.789V68.023H521.3Z" fill="#fff"/>
          <path id="Path_7120" data-name="Path 7120" d="M238.849,43.019A43.019,43.019,0,1,1,195.83,0a43.019,43.019,0,0,1,43.019,43.019" fill="#e31836"/>
          <path id="Path_7121" data-name="Path 7121" d="M224.51,43.019A28.679,28.679,0,1,1,195.831,14.34,28.679,28.679,0,0,1,224.51,43.019" fill="#130291"/>
          <path id="Path_7122" data-name="Path 7122" d="M210.17,43.019a14.34,14.34,0,1,1-14.34-14.34,14.34,14.34,0,0,1,14.34,14.34" fill="#e31836"/>
        </g>
      </g>
    </g>
  </g>
</svg>
