<svg xmlns="http://www.w3.org/2000/svg" width="30" height="30" viewBox="0 0 30 30">
  <g id="Group_4654" data-name="Group 4654" transform="translate(6964 -4654)">
    <path id="Path_7392" data-name="Path 7392" d="M24,30H6a6,6,0,0,1-6-6V6A6,6,0,0,1,6,0H24a6,6,0,0,1,6,6V24a6,6,0,0,1-6,6" transform="translate(-6964 4654)" fill="#e1ddff"/>
    <rect id="Rectangle_8346" data-name="Rectangle 8346" width="1.201" height="11.448" transform="translate(-6949.599 4659.701)" fill="#fff"/>
    <rect id="Rectangle_8347" data-name="Rectangle 8347" width="1.201" height="11.448" transform="translate(-6949.599 4659.701)" fill="#130291"/>
    <path id="Path_7393" data-name="Path 7393" d="M11.4,6.3h-3A2.4,2.4,0,0,0,6,8.7V21.9a2.4,2.4,0,0,0,2.4,2.4H21.6A2.4,2.4,0,0,0,24,21.9V8.7a2.4,2.4,0,0,0-2.4-2.4h-3" transform="translate(-6964 4654)" fill="none" stroke="#130291" stroke-linejoin="round" stroke-width="1.309"/>
    <path id="Path_7394" data-name="Path 7394" d="M19.247,12.9,15,17.147,10.753,12.9" transform="translate(-6964 4654)" fill="none" stroke="#130291" stroke-miterlimit="10" stroke-width="1.2"/>
  </g>
</svg>
