<svg xmlns="http://www.w3.org/2000/svg" width="16.31" height="16.311" viewBox="0 0 16.31 16.311">
  <g id="Group_4657" data-name="Group 4657" transform="translate(7098.11 -3057.981)">
    <path id="Path_7414" data-name="Path 7414" d="M2,0H13a2,2,0,0,1,2,2V13a2,2,0,0,1-2,2H2a2,2,0,0,1-2-2V2A2,2,0,0,1,2,0Z" transform="translate(-7097.455 3058.636)" fill="none" stroke="#130291" stroke-width="1.31"/>
    <path id="Path_7397" data-name="Path 7397" d="M7.083,10.734,4.817,7.983a1,1,0,0,0-1.544,0L.545,11.3v2.25a2,2,0,0,0,2,2h11a2,2,0,0,0,2-2V11.3l-3.13-5.525a1,1,0,0,0-1.74,0L7.9,10.663A.5.5,0,0,1,7.083,10.734Z" transform="translate(-7098 3058.09)" fill="none" stroke="#130291" stroke-linejoin="round" stroke-width="1.31"/>
  </g>
</svg>
