<svg xmlns="http://www.w3.org/2000/svg" width="16.564" height="16.39" viewBox="0 0 16.564 16.39">
  <path id="Path_266" data-name="Path 266" d="M81.678,15.858l-7.018,7.018a.609.609,0,0,0-.178.431v6.766a.611.611,0,0,0,.61.611h4.272a.611.611,0,0,0,.61-.611V25.191a.611.611,0,0,1,.611-.611h3.049a.611.611,0,0,1,.61.611v4.882a.611.611,0,0,0,.611.611h4.272a.611.611,0,0,0,.61-.611V23.308a.607.607,0,0,0-.179-.431l-7.015-7.019a.611.611,0,0,0-.863,0" transform="translate(-73.826 -14.949)" fill="none" stroke="#130291" stroke-width="1.31"/>
</svg>
