<svg xmlns="http://www.w3.org/2000/svg" width="30" height="30" viewBox="0 0 30 30">
  <defs>
    <style>
      .cls-1 {
        fill: #e1ddff;
      }

      .cls-2, .cls-3, .cls-6 {
        fill: none;
      }

      .cls-3 {
        stroke: #130291;
        stroke-width: 1.31px;
      }

      .cls-4, .cls-5 {
        stroke: none;
      }

      .cls-5 {
        fill: #130291;
      }
    </style>
  </defs>
  <g id="Group_4665" data-name="Group 4665" transform="translate(7007 -4787)">
    <rect id="Rectangle_8360" data-name="Rectangle 8360" class="cls-1" width="30" height="30" transform="translate(-7007 4787)"/>
    <g id="Polygon_95" data-name="Polygon 95" class="cls-2" transform="translate(-6984 4795) rotate(90)">
      <path class="cls-4" d="M6.12,1.635a1,1,0,0,1,1.761,0l5.326,9.891A1,1,0,0,1,12.326,13H1.674a1,1,0,0,1-.88-1.474Z"/>
      <path class="cls-5" d="M 7.000001907348633 2.76313304901123 L 2.193229675292969 11.69000053405762 L 11.80676937103271 11.69000053405762 L 7.000001907348633 2.76313304901123 M 6.999999523162842 1.109259605407715 C 7.345841884613037 1.109259605407715 7.691684722900391 1.284560203552246 7.88046932220459 1.635160446166992 L 13.20624923706055 11.52589988708496 C 13.56498908996582 12.19213008880615 13.08245944976807 13 12.32577991485596 13 L 1.674219131469727 13 C 0.9175395965576172 13 0.4350099563598633 12.19213008880615 0.7937498092651367 11.52589988708496 L 6.119529724121094 1.635160446166992 C 6.308314323425293 1.284560203552246 6.654157161712646 1.109259605407715 6.999999523162842 1.109259605407715 Z"/>
    </g>
    <g id="Ellipse_2922" data-name="Ellipse 2922" class="cls-3" transform="translate(-7003 4791)">
      <circle class="cls-4" cx="11" cy="11" r="11"/>
      <circle class="cls-6" cx="11" cy="11" r="10.345"/>
    </g>
  </g>
</svg>
