<?xml version="1.0" encoding="UTF-8"?><svg id="a" xmlns="http://www.w3.org/2000/svg" viewBox="0 0 3064 1080"><defs><style>.o{fill:#fff;}.p,.q{fill:#e31836;}.r{fill:#130291;}.q{stroke:#fff;stroke-width:8.31px;}</style></defs><rect class="p" width="3064" height="1080"/><g><path id="b" class="o" d="M467.51,493.01h1.61l20.86,69.07h-43.34l20.86-69.07Zm-38.02-57.63l-69.07,209.25h61.31l12.05-40.05h69.07l12.04,40.05h61.31l-69.07-209.25h-77.65Z"/><path id="c" class="o" d="M777.51,644.62h-47.4l-75.6-109.94h-1.24v109.94h-56.81v-209.25h48.23l74.39,109.53h1.62v-109.53h56.81v209.25Z"/><path id="d" class="o" d="M804.67,435.38h147.14v45.77h-90.33v35.95h81.33v45.8h-81.33v81.73h-56.81v-209.25Z"/><path id="e" class="o" d="M1502.13,647.48c-54.35,0-94.31-40.66-94.31-107.48s39.96-107.48,94.31-107.48,94.2,40.57,94.2,107.48-40.05,107.48-94.2,107.48m0-186.16c-36.07,0-62.95,27.69-62.95,78.68s26.88,78.68,62.95,78.68,62.93-27.69,62.93-78.68-26.98-78.68-62.93-78.68"/><path id="f" class="o" d="M1625.13,435.38h31.57v99.92h2.56l87.78-99.91h39.73l-84.38,94.19,84.68,115.06h-37.99l-67.66-93.49-24.72,28.41v65.08h-31.57v-209.24Z"/><path id="g" class="o" d="M1950.12,503.41c-5.2-27.07-27.59-42.09-54.26-42.09-36.07,0-63.04,27.89-63.04,78.68s27.09,78.68,62.95,78.68c26.46,0,48.94-14.72,54.35-41.49l31.87,.09c-6.42,38.63-36.16,66.42-77.55,69.8l-1.22,6.23c11.74,1.83,22.17,8.98,22.17,24.4,.09,18.49-16.34,30.96-46.6,30.96l-.61-17.06c14.11,0,23.82-3.88,23.91-12.96s-6.44-12.07-21.44-13.5l3.77-18.28c-48.54-5.21-82.97-44.65-82.97-106.88,0-66.92,39.96-107.48,94.1-107.48,44.25,0,79.29,26.16,86.44,70.89h-31.87Z"/><path id="h" class="o" d="M2177.03,435.38v138.44c0,47.2-36.89,74.27-83.18,74.27s-83.06-27.07-83.06-74.27v-138.44h31.57v137.93c0,29.32,23.51,45.77,51.51,45.77s51.61-16.45,51.61-45.77v-137.93h31.56Z"/><path id="i" class="o" d="M2205.83,435.38h31.57v182.06h94.8v27.19h-126.37v-209.25Z"/><path id="j" class="o" d="M2512.85,435.38v138.44c0,47.2-36.89,74.27-83.18,74.27s-83.06-27.07-83.06-74.27v-138.44h31.57v137.93c0,29.32,23.51,45.77,51.51,45.77s51.61-16.45,51.61-45.77v-137.93h31.56Z"/><path id="k" class="o" d="M2541.65,435.38h31.57v99.92h2.56l87.78-99.91h39.73l-84.39,94.19,84.68,115.06h-37.99l-67.63-93.49-24.73,28.41v65.08h-31.57v-209.24Z"/><path id="l" class="q" d="M1359.82,540c0,99.41-80.59,180-180,180s-180-80.59-180-180,80.59-180,180-180,180,80.59,180,180"/><path id="m" class="r" d="M1299.82,540c0,66.27-53.73,120-120,120s-120-53.73-120-120,53.73-120,120-120c66.27,0,120,53.73,120,120h0"/><path id="n" class="p" d="M1239.81,540c0,33.14-26.86,60-60,60s-60-26.86-60-60,26.86-60,60-60h0c33.14,0,60,26.86,60,60"/></g></svg>