<?xml version="1.0" encoding="UTF-8"?><svg id="a" xmlns="http://www.w3.org/2000/svg" viewBox="0 0 3064 1080"><defs><style>.b{fill:#fff;}</style></defs><rect class="b" width="3064" height="1080"/><g><path d="M360.42,644.62l69.07-209.25h77.65l69.07,209.25h-61.31l-12.05-40.05h-69.07l-12.05,40.05h-61.31Zm129.56-82.55l-20.86-69.07h-1.62l-20.86,69.07h43.34Z"/><path d="M777.51,644.62h-47.39l-75.61-109.95h-1.24v109.95h-56.81v-209.25h48.23l74.39,109.52h1.62v-109.52h56.81v209.25Z"/><path d="M804.68,435.38h147.14v45.77h-90.33v35.95h81.33v45.8h-81.33v81.73h-56.81v-209.25Z"/><path d="M1502.13,647.48c-54.35,0-94.31-40.66-94.31-107.48s39.96-107.48,94.31-107.48,94.2,40.57,94.2,107.48-40.05,107.48-94.2,107.48Zm0-186.16c-36.07,0-62.95,27.7-62.95,78.68s26.88,78.68,62.95,78.68,62.93-27.7,62.93-78.68-26.98-78.68-62.93-78.68Z"/><path d="M1625.12,435.38h31.57v99.91h2.55l87.77-99.91h39.73l-84.37,94.2,84.68,115.05h-37.99l-67.64-93.49-24.73,28.41v65.09h-31.57v-209.25Z"/><path d="M1950.12,503.41c-5.2-27.07-27.59-42.09-54.26-42.09-36.07,0-63.05,27.89-63.05,78.68s27.09,78.68,62.95,78.68c26.46,0,48.94-14.72,54.35-41.48l31.87,.09c-6.42,38.63-36.16,66.42-77.55,69.8l-1.22,6.23c11.74,1.83,22.17,8.98,22.17,24.4,.09,18.49-16.34,30.96-46.59,30.96l-.61-17.06c14.11,0,23.81-3.87,23.91-12.96,.09-9.09-6.45-12.07-21.45-13.5l3.77-18.28c-48.54-5.2-82.97-44.65-82.97-106.88,0-66.91,39.96-107.48,94.1-107.48,44.25,0,79.29,26.16,86.44,70.9h-31.87Z"/><path d="M2177.03,435.38v138.45c0,47.2-36.89,74.27-83.18,74.27s-83.06-27.07-83.06-74.27v-138.45h31.57v137.93c0,29.32,23.51,45.77,51.49,45.77s51.61-16.45,51.61-45.77v-137.93h31.57Z"/><path d="M2205.83,435.38h31.57v182.06h94.8v27.19h-126.37v-209.25Z"/><path d="M2512.85,435.38v138.45c0,47.2-36.89,74.27-83.18,74.27s-83.06-27.07-83.06-74.27v-138.45h31.57v137.93c0,29.32,23.51,45.77,51.49,45.77s51.61-16.45,51.61-45.77v-137.93h31.57Z"/><path d="M2541.65,435.38h31.57v99.91h2.55l87.77-99.91h39.73l-84.37,94.2,84.68,115.05h-37.99l-67.64-93.49-24.73,28.41v65.09h-31.57v-209.25Z"/><circle cx="1179.82" cy="540" r="180"/><circle class="b" cx="1179.82" cy="540" r="120"/><circle cx="1179.82" cy="540" r="60"/></g></svg>